<svg width="30" height="20" viewBox="0 0 30 20" fill="none" xmlns="http://www.w3.org/2000/svg">
<path d="M29.0608 3.12932C28.7272 1.89755 27.7446 0.927448 26.4969 0.598229C24.2353 0 15.1667 0 15.1667 0C15.1667 0 6.09824 0 3.83664 0.598229C2.58893 0.9275 1.60626 1.89755 1.27273 3.12932C0.666748 5.36198 0.666748 10.0202 0.666748 10.0202C0.666748 10.0202 0.666748 14.6784 1.27273 16.9111C1.60626 18.1429 2.58893 19.0726 3.83664 19.4018C6.09824 20 15.1667 20 15.1667 20C15.1667 20 24.2353 20 26.4969 19.4018C27.7446 19.0726 28.7272 18.1429 29.0608 16.9111C29.6667 14.6784 29.6667 10.0202 29.6667 10.0202C29.6667 10.0202 29.6667 5.36198 29.0608 3.12932V3.12932ZM12.2008 14.2495V5.79089L19.7803 10.0203L12.2008 14.2495V14.2495Z" fill="#1C263F"/>
</svg>
