<svg width="40" height="40" viewBox="0 0 40 40" fill="none" xmlns="http://www.w3.org/2000/svg">
<path d="M39.4493 34.5826L31.661 26.7943C31.3094 26.4427 30.8329 26.2474 30.333 26.2474H29.0597C31.2157 23.4899 32.4968 20.0215 32.4968 16.2484C32.4968 7.27273 25.2241 0 16.2484 0C7.27273 0 0 7.27273 0 16.2484C0 25.2241 7.27273 32.4968 16.2484 32.4968C20.0215 32.4968 23.4899 31.2157 26.2474 29.0597V30.333C26.2474 30.8329 26.4427 31.3094 26.7943 31.661L34.5826 39.4493C35.3169 40.1836 36.5043 40.1836 37.2307 39.4493L39.4415 37.2386C40.1758 36.5042 40.1758 35.3169 39.4493 34.5826ZM16.2484 26.2474C10.7255 26.2474 6.24939 21.7791 6.24939 16.2484C6.24939 10.7255 10.7177 6.24939 16.2484 6.24939C21.7713 6.24939 26.2474 10.7177 26.2474 16.2484C26.2474 21.7713 21.7791 26.2474 16.2484 26.2474Z" fill="black"/>
</svg>
