<svg width="40" height="40" viewBox="0 0 40 40" fill="none" xmlns="http://www.w3.org/2000/svg">
<path d="M17.5003 7.50015L18.7504 5.0001L21.2504 3.75007L18.7504 2.50005L17.5003 0L16.2503 2.50005L13.7503 3.75007L16.2503 5.0001L17.5003 7.50015ZM6.25012 12.5002L8.33298 8.33376L12.5002 6.25012L8.33298 4.16649L6.25012 0L4.16727 4.16649L0 6.25012L4.16727 8.33376L6.25012 12.5002ZM33.7507 22.5004L31.6678 26.6669L27.5005 28.7506L31.6678 30.8342L33.7507 35.0007L35.8335 30.8342L40.0008 28.7506L35.8335 26.6669L33.7507 22.5004ZM39.268 7.36186L32.6389 0.732827C32.1514 0.243755 31.5116 0 30.8717 0C30.2318 0 29.592 0.243755 29.1037 0.732827L0.732827 29.1037C-0.243755 30.0803 -0.243755 31.6631 0.732827 32.6389L7.36186 39.268C7.85015 39.7562 8.49001 40 9.12908 40C9.76894 40 10.4088 39.7562 10.8971 39.268L39.268 10.8963C40.2445 9.92129 40.2445 8.33766 39.268 7.36186V7.36186ZM28.0826 15.8956L24.1052 11.9182L30.8709 5.15244L34.8483 9.12987L28.0826 15.8956V15.8956Z" fill="white"/>
</svg>
