<svg width="574" height="200" viewBox="0 0 574 200" fill="none" xmlns="http://www.w3.org/2000/svg">
<g filter="url(#filter0_i_76_1798)">
<path d="M0.284424 88.5499H22.1486V59.5191H42.4337C60.2894 59.5191 71.8288 47.7368 71.8288 31.0957C71.8288 22.35 68.6707 14.9405 63.0832 9.7174C57.7386 4.61577 49.9647 1.70055 39.397 1.70055H0.284424V88.5499ZM22.1486 42.5137V19.7992H38.0608C45.7133 19.7992 50.2076 24.0506 50.2076 30.9742C50.2076 37.8979 45.8348 42.5137 38.0608 42.5137H22.1486Z" fill="white"/>
<path d="M79.523 88.5499H101.387V57.8186H113.777L131.39 88.5499H155.562L135.398 54.7819C145.358 50.5305 151.553 41.9063 151.553 30.3669C151.553 21.7427 148.274 14.819 142.808 9.59594C137.342 4.4943 129.568 1.70055 119 1.70055H79.523V88.5499ZM101.387 40.9346V19.7992H117.785C125.438 19.7992 129.811 23.4433 129.811 30.2454C129.811 37.0476 125.438 40.9346 117.785 40.9346H101.387Z" fill="white"/>
<path d="M201.086 73.1235C187.117 73.1235 179.95 61.0982 179.95 45.3074C179.95 29.5166 187.117 17.3699 201.086 17.3699C215.176 17.3699 222.099 29.5166 222.099 45.3074C222.099 61.0982 215.176 73.1235 201.086 73.1235ZM200.964 90.6148C227.322 90.6148 243.964 71.3015 243.964 45.3074C243.964 19.3133 227.322 0 200.964 0C174.727 0 158.086 19.3133 158.086 45.3074C158.086 71.3015 174.727 90.6148 200.964 90.6148Z" fill="white"/>
<path d="M273.853 70.4512V19.6777H286.729C300.212 19.6777 307.864 29.881 307.864 45.6718C307.864 61.5841 300.576 70.4512 286.486 70.4512H273.853ZM252.353 88.5499H288.065C298.997 88.5499 307.743 85.7561 314.545 80.6545C324.262 73.245 329.607 60.9767 329.607 45.6718C329.607 19.0704 313.452 1.70055 289.401 1.70055H252.353V88.5499Z" fill="white"/>
<path d="M373.83 90.1289C398.002 90.1289 410.028 77.9822 410.028 57.94V1.70055H388.528V58.3044C388.528 66.8072 383.791 72.8806 373.83 72.8806C363.263 72.8806 358.89 67.1716 358.89 58.6688V1.70055H337.39V57.94C337.39 78.2251 349.537 90.1289 373.83 90.1289Z" fill="white"/>
<path d="M460.625 90.4934C472.893 90.4934 481.76 87.0923 488.441 80.6545C494.393 74.9455 498.28 67.0501 498.887 58.4259H477.387C476.416 66.8072 470.099 72.8806 460.503 72.8806C447.628 72.8806 439.611 61.3411 439.611 45.4289C439.611 29.6381 446.292 17.8557 460.382 17.8557C469.613 17.8557 475.687 23.8076 476.78 31.5816H498.28C497.186 21.8642 492.814 13.3614 485.283 7.65246C479.088 2.91522 470.585 0 460.503 0C434.631 0 417.747 19.5563 417.747 45.4289C417.747 71.4229 435.117 90.4934 460.625 90.4934Z" fill="white"/>
<path d="M526.156 88.5499H547.656V19.9207H573.164V1.70055H500.891V19.9207H526.156V88.5499Z" fill="white"/>
</g>
<path opacity="0.6" fill-rule="evenodd" clip-rule="evenodd" d="M0 199.323V199.71H179.946V189.639H1.93751L0 199.323ZM4.0783 178.938H161.038V170.125H5.84131L4.0783 178.938ZM7.98209 159.425H179.946V150.612H9.74506L7.98209 159.425ZM11.8859 139.912H162.343V131.099H13.6489L11.8859 139.912ZM15.7897 120.398H179.946V111.586H17.5527L15.7897 120.398Z" fill="#CD314D"/>
<g filter="url(#filter1_i_76_1798)">
<path d="M176.654 200C171.634 200 166.977 199.474 162.686 198.421C158.394 197.368 154.426 195.749 150.782 193.562C147.219 191.376 144.425 188.339 142.4 184.452C140.457 180.484 139.566 175.869 139.728 170.605H160.985C160.904 174.897 162.321 178.055 165.236 180.079C168.152 182.104 172.16 183.116 177.262 183.116C181.311 183.116 184.631 182.387 187.222 180.93C189.894 179.391 191.23 177.002 191.23 173.763C191.23 171.334 190.016 169.39 187.586 167.933C185.157 166.394 180.663 164.451 174.103 162.102C165.358 159.025 158.92 155.705 154.79 152.142C150.741 148.579 148.717 143.518 148.717 136.959C148.717 128.213 151.753 121.451 157.827 116.673C163.981 111.896 172.039 109.507 181.999 109.507C186.453 109.507 190.623 109.993 194.51 110.964C198.397 111.855 202.001 113.313 205.321 115.337C208.641 117.281 211.192 120.034 212.973 123.597C214.836 127.16 215.645 131.371 215.402 136.23H194.753C194.834 132.829 193.7 130.237 191.352 128.456C189.004 126.593 185.643 125.662 181.27 125.662C178.112 125.662 175.318 126.35 172.889 127.727C170.459 129.104 169.204 131.169 169.123 133.922C169.123 136.189 170.095 137.89 172.039 139.023C174.063 140.157 178.355 141.858 184.914 144.125C186.129 144.53 187.06 144.854 187.708 145.097C196.049 148.012 202.324 151.373 206.535 155.179C210.746 158.904 212.852 164.086 212.852 170.726C212.852 180.12 209.41 187.368 202.527 192.469C195.725 197.49 187.101 200 176.654 200Z" fill="#FFE24B"/>
<path d="M216.004 197.935L232.767 111.086H266.899C277.507 111.086 285.403 113.88 290.585 119.467C294.877 124.002 297.023 129.994 297.023 137.444C297.023 147.081 293.946 154.733 287.791 160.402C281.718 166.07 273.742 168.904 263.862 168.904H243.091L237.504 197.935H216.004ZM246.371 152.02H262.04C265.927 152.02 269.166 150.927 271.758 148.741C274.349 146.473 275.645 143.194 275.645 138.902C275.645 132.343 272.082 129.063 264.956 129.063H250.865L246.371 152.02Z" fill="#FFE24B"/>
<path d="M345.33 197.935L333.912 167.082H320.915L314.963 197.935H293.463L310.226 111.086H344.48C355.25 111.086 363.145 113.677 368.166 118.86C372.62 123.476 374.847 129.306 374.847 136.351C374.847 143.234 372.984 149.105 369.259 153.964C365.534 158.823 360.554 162.345 354.319 164.532L367.802 197.935H345.33ZM324.195 150.441H339.621C343.67 150.441 346.95 149.47 349.46 147.526C352.051 145.583 353.347 142.506 353.347 138.295C353.347 135.379 352.416 133.112 350.553 131.492C348.772 129.873 346.18 129.063 342.779 129.063H328.325L324.195 150.441Z" fill="#FFE24B"/>
<path d="M373.888 197.935L390.772 111.086H411.908L395.145 197.935H373.888Z" fill="#FFE24B"/>
<path d="M406.983 197.935L423.746 111.086H445.003L460.186 153.721L464.073 165.989H464.316L475.005 111.086H495.533L478.771 197.935H457.514L442.695 156.515L438.444 142.667H438.201L427.511 197.935H406.983Z" fill="#FFE24B"/>
<path d="M510.78 197.935L524.142 129.063H499.727L503.128 111.086H573.336L569.935 129.063H545.277L531.916 197.935H510.78Z" fill="#FFE24B"/>
</g>
<defs>
<filter id="filter0_i_76_1798" x="0.284424" y="0" width="575.88" height="92.6147" filterUnits="userSpaceOnUse" color-interpolation-filters="sRGB">
<feFlood flood-opacity="0" result="BackgroundImageFix"/>
<feBlend mode="normal" in="SourceGraphic" in2="BackgroundImageFix" result="shape"/>
<feColorMatrix in="SourceAlpha" type="matrix" values="0 0 0 0 0 0 0 0 0 0 0 0 0 0 0 0 0 0 127 0" result="hardAlpha"/>
<feOffset dx="3" dy="2"/>
<feGaussianBlur stdDeviation="1.5"/>
<feComposite in2="hardAlpha" operator="arithmetic" k2="-1" k3="1"/>
<feColorMatrix type="matrix" values="0 0 0 0 0.302222 0 0 0 0 0.346296 0 0 0 0 0.566667 0 0 0 1 0"/>
<feBlend mode="normal" in2="shape" result="effect1_innerShadow_76_1798"/>
</filter>
<filter id="filter1_i_76_1798" x="139.709" y="109.507" width="436.627" height="92.4932" filterUnits="userSpaceOnUse" color-interpolation-filters="sRGB">
<feFlood flood-opacity="0" result="BackgroundImageFix"/>
<feBlend mode="normal" in="SourceGraphic" in2="BackgroundImageFix" result="shape"/>
<feColorMatrix in="SourceAlpha" type="matrix" values="0 0 0 0 0 0 0 0 0 0 0 0 0 0 0 0 0 0 127 0" result="hardAlpha"/>
<feOffset dx="3" dy="2"/>
<feGaussianBlur stdDeviation="1.5"/>
<feComposite in2="hardAlpha" operator="arithmetic" k2="-1" k3="1"/>
<feColorMatrix type="matrix" values="0 0 0 0 0.7 0 0 0 0 0.37625 0 0 0 0 0.37625 0 0 0 1 0"/>
<feBlend mode="normal" in2="shape" result="effect1_innerShadow_76_1798"/>
</filter>
</defs>
</svg>
