<svg width="311" height="236" viewBox="0 0 311 236" fill="none" xmlns="http://www.w3.org/2000/svg">
<g clip-path="url(#clip0_76_227)">
<path d="M287.528 214.511C277.346 222.261 264.942 230.111 252.746 233.813C249.23 234.912 245.602 235.613 241.93 235.904C238.497 236.18 235.041 235.912 231.692 235.11C222.89 232.922 214.726 229.09 206.826 224.613C204.245 223.148 201.694 221.616 199.158 220.05C195.018 217.493 190.919 214.847 186.809 212.263C186.194 211.872 185.582 211.488 184.967 211.108H184.963C183.971 210.485 182.976 209.871 181.979 209.266C181.804 209.158 181.629 209.054 181.45 208.946C179.566 207.805 177.65 206.69 175.702 205.602C175.463 205.472 175.225 205.337 174.986 205.207C171.217 203.117 167.343 201.222 163.379 199.53C160.776 198.434 158.139 197.446 155.476 196.603H155.473C154.454 196.283 153.432 195.981 152.407 195.705C149.331 194.862 146.197 194.249 143.03 193.871C138.667 193.343 134.253 193.378 129.898 193.976C129.604 194.017 129.313 194.058 129.018 194.106C117.232 195.992 106.476 202.351 94.6381 203.85C94.2539 203.898 93.8735 203.943 93.4893 203.977C93.3252 203.992 93.1611 204.01 92.997 204.021C89.5569 204.316 86.0948 204.231 82.6733 203.768C73.1142 202.508 63.805 198.598 55.4245 193.67C35.8326 182.148 19.9442 164.438 10.2844 143.928C8.62563 140.413 7.15287 136.814 5.87225 133.144C2.29175 122.969 0.319959 112.298 0.0278654 101.515C-0.878441 64.1049 20.3918 26.5714 53.7871 9.65165C87.1862 -7.26806 131.122 -1.67289 158.057 24.3199C174.397 40.0878 183.851 61.4545 196.148 80.5437C208.445 99.6292 225.922 117.861 248.464 120.642C259.948 122.058 271.965 119.319 282.971 122.882C289.065 124.858 294.264 128.638 298.453 133.454C301.269 136.722 303.625 140.359 305.457 144.264C306.799 147.087 307.889 150.023 308.713 153.039C308.866 153.594 309.008 154.149 309.146 154.705C314.628 177.086 305.867 200.547 287.528 214.511Z" fill="#F2F2F2"/>
<path d="M104.119 173.995H69.0602C63.8076 173.995 59.5496 178.251 59.5496 183.501V183.501C59.5496 188.75 63.8076 193.006 69.0602 193.006H104.119C109.372 193.006 113.63 188.75 113.63 183.501C113.63 178.251 109.372 173.995 104.119 173.995Z" fill="#3F3D56"/>
<path d="M93.4893 188.16V203.976C89.888 204.325 86.2585 204.255 82.6733 203.768V188.16H93.4893Z" fill="#3F3D56"/>
<path d="M129.898 193.976C129.604 194.017 129.313 194.058 129.018 194.106C117.232 195.993 106.476 202.352 94.6382 203.85C94.254 203.899 93.8736 203.944 93.4894 203.977C93.3253 203.992 93.1612 204.011 92.9971 204.022C90.1066 201.193 87.2161 198.181 84.501 195.061C83.0277 193.372 81.603 191.65 80.264 189.905C76.788 185.402 73.8416 180.773 71.8947 176.225C72.0924 174.044 70.7348 169.001 70.0858 165.139L70.0821 165.135C69.8061 163.514 69.6569 162.105 69.7949 161.199C70.5856 155.973 74.856 156.573 76.1689 151.451C77.3532 150.469 78.6141 149.582 79.9396 148.801C80.1596 148.67 80.3834 148.54 80.6146 148.409L94.8619 138.568L100.307 143.906L108.595 152.033L117.576 160.834L109.952 168.531C109.952 168.531 116.322 175.871 123.771 185.656C125.77 188.284 127.847 191.091 129.898 193.976Z" fill="#2F2E41"/>
<path d="M252.746 188.16V233.812C249.23 234.911 245.602 235.613 241.93 235.904V188.16H252.746Z" fill="#3F3D56"/>
<path d="M266.732 184.433H231.673C226.421 184.433 222.163 188.688 222.163 193.938V193.938C222.163 199.188 226.421 203.444 231.673 203.444H266.732C271.985 203.444 276.243 199.188 276.243 193.938C276.243 188.688 271.985 184.433 266.732 184.433Z" fill="#3F3D56"/>
<path d="M181.45 208.945C179.566 207.805 177.65 206.69 175.702 205.602C175.464 205.471 175.225 205.337 174.986 205.206L176.269 204.658L179.73 203.171L179.764 203.156L179.801 203.283L181.45 208.945Z" fill="#FFB6B6"/>
<path d="M186.809 212.264C186.194 211.872 185.582 211.488 184.967 211.108H184.963C183.971 210.486 182.976 209.872 181.979 209.267C181.804 209.158 181.629 209.054 181.45 208.946C179.566 207.805 177.65 206.691 175.702 205.602C175.464 205.472 175.225 205.338 174.986 205.207C171.217 203.118 167.343 201.223 163.379 199.53C160.776 198.434 158.139 197.446 155.476 196.604H155.473L153.38 193.104L143.963 177.339L141.893 173.876C141.893 173.876 134.833 175.964 124.841 177.966C121.204 178.696 117.184 179.412 112.966 180.016C108.457 180.657 103.727 181.168 99.0279 181.414C96.7864 181.533 94.5524 181.593 92.3519 181.574C86.6641 181.537 81.2002 181.004 76.415 179.736C74.8187 178.238 70.0075 176.199 66.5613 174.331H66.5575C65.1104 173.548 63.9095 172.799 63.2792 172.132C59.6465 168.292 62.7496 165.299 59.5197 161.109C59.4762 159.572 59.5548 158.034 59.7546 156.509C59.7882 156.256 59.8218 155.999 59.8628 155.738L60.881 138.457L68.4447 137.458L79.9545 135.937L92.4227 134.289L93.7952 145.032C93.7952 145.032 103.504 144.54 115.804 144.704C135.56 144.972 161.996 146.941 165.576 155.387C165.912 156.181 166.248 156.983 166.583 157.784C167.381 159.7 168.172 161.626 168.955 163.562C171.794 170.57 174.501 177.645 176.974 184.332C178.511 188.493 179.958 192.503 181.289 196.257C182.36 199.277 183.352 202.132 184.258 204.76C185.086 207.16 185.836 209.371 186.503 211.354C186.608 211.663 186.708 211.969 186.809 212.264Z" fill="#2F2E41"/>
<path d="M117.23 107.558L93.3398 87.2796L108.883 71.5576L119.727 89.3097L159.923 97.2745C161.132 96.3654 162.579 95.8274 164.088 95.7261C165.598 95.6248 167.104 95.9646 168.423 96.7041C169.743 97.4436 170.818 98.5507 171.519 99.8906C172.22 101.23 172.515 102.745 172.369 104.25C172.224 105.755 171.643 107.185 170.698 108.365C169.753 109.546 168.485 110.427 167.048 110.899C165.612 111.372 164.068 111.417 162.606 111.028C161.145 110.64 159.827 109.834 158.816 108.71L117.23 107.558Z" fill="#A0616A"/>
<path d="M72.2261 60.6285C69.4651 69.6057 95.7601 91.0162 95.7601 91.0162C96.0522 88.861 110.961 107.445 111.975 105.762C114.858 100.979 118.03 89.1548 121.357 87.6436C123.261 86.7793 112.343 74.7671 112.343 74.7671C112.343 74.7671 106.773 67.4028 99.4199 58.0694C97.39 55.3922 94.7153 53.2718 91.6449 51.9056C88.5744 50.5394 85.2081 49.9719 81.8592 50.2558C81.8592 50.2558 74.9871 51.6515 72.2261 60.6285Z" fill="#3F3D56"/>
<path d="M83.8522 40.7552C92.7763 40.7552 100.011 33.5248 100.011 24.6057C100.011 15.6865 92.7763 8.45605 83.8522 8.45605C74.9282 8.45605 67.6938 15.6865 67.6938 24.6057C67.6938 33.5248 74.9282 40.7552 83.8522 40.7552Z" fill="#A0616A"/>
<path d="M91.9312 51.4293C95.4123 53.4977 97.4947 57.2981 98.6901 61.1653C100.903 68.3251 102.235 75.7277 102.657 83.2094L103.92 105.609L119.557 153.303C106.005 164.764 55.0639 155.907 55.0639 155.907C55.0639 155.907 53.5002 155.386 55.0639 153.823C56.6277 152.261 58.15 153.645 56.5863 152.082C55.0226 150.519 56.1005 152.261 56.6218 150.698C57.143 149.135 56.6218 150.177 56.1005 149.656C55.5793 149.135 60.1357 144.446 60.1357 144.446L55.9658 117.069L50.7534 61.8483C57.0083 54.034 69.5876 49.4275 69.5876 49.4275L72.838 43.5801L89.0897 44.8795L91.9312 51.4293Z" fill="#3F3D56"/>
<path d="M97.172 16.0253C98.4279 16.9615 99.3583 18.2678 99.8323 19.7602C100.014 17.3212 100.026 14.8725 99.8669 12.4319C99.6765 10.7169 98.4684 10.3311 97.0695 9.88411C95.8062 9.48026 94.3775 9.02407 93.9931 7.35918C88.9138 2.42066 80.0719 2.66968 74.0207 4.39232C70.691 5.34025 68.7751 6.55816 68.6037 7.27162L68.5681 7.41848L68.4329 7.48606C65.8663 8.76867 65.3667 12.8189 65.3997 15.9907C65.4622 21.9666 67.5267 28.7537 68.6897 29.3051C68.7513 29.3343 68.7668 29.3229 68.7935 29.3007C70.5447 27.9019 72.6812 29.407 73.6201 30.2251C74.1739 26.511 75.957 23.0895 78.6847 20.507C81.4123 17.9245 84.9272 16.3301 88.6678 15.9784C89.8894 15.8604 91.1013 15.6573 92.2946 15.3706C92.8999 15.214 93.5221 15.1324 94.1474 15.1276C95.2236 15.1112 96.2791 15.4245 97.172 16.0253Z" fill="#2F2E41"/>
<path d="M76.8119 131.89L71.8691 129.36C71.6042 129.171 71.4161 128.894 71.3391 128.578C71.2621 128.262 71.3012 127.929 71.4495 127.64C71.5977 127.351 71.8451 127.124 72.1465 127.002C72.4479 126.88 72.7831 126.871 73.091 126.975L78.0339 129.505C78.2987 129.694 78.4868 129.972 78.5638 130.287C78.6409 130.603 78.6017 130.936 78.4535 131.225C78.3052 131.514 78.0578 131.741 77.7565 131.863C77.4551 131.985 77.1198 131.995 76.8119 131.89L76.8119 131.89Z" fill="#CD314D"/>
<path d="M60.1765 125.111L52.0454 94.8571L73.7739 90.7461L72.6054 111.512L101.155 140.893C102.666 140.831 104.163 141.21 105.463 141.984C106.762 142.758 107.808 143.893 108.474 145.25C109.139 146.608 109.395 148.13 109.21 149.631C109.025 151.131 108.407 152.545 107.431 153.701C106.456 154.857 105.165 155.703 103.716 156.139C102.268 156.574 100.724 156.578 99.2724 156.151C97.8213 155.724 96.5258 154.885 95.5438 153.735C94.5619 152.585 93.9359 151.174 93.7423 149.674L60.1765 125.111Z" fill="#A0616A"/>
<path d="M49.8219 60.9362C42.4465 66.7556 51.9129 99.3066 51.9129 99.3066C53.3785 97.6991 55.0817 121.458 56.8731 120.649C61.9646 118.35 71.2967 110.421 74.8944 111.067C76.9518 111.437 74.7963 95.352 74.7963 95.352C74.7963 95.352 74.3998 86.1292 73.6546 74.273C73.5062 70.9172 72.5106 67.6534 70.7606 64.7856C69.0106 61.9177 66.5631 59.539 63.6458 57.8709C63.6458 57.8709 57.1974 55.1169 49.8219 60.9362Z" fill="#3F3D56"/>
<path d="M305.457 144.264L10.2845 143.929C8.62569 140.414 7.15293 136.814 5.87231 133.145L298.453 133.454C301.269 136.722 303.625 140.359 305.457 144.264Z" fill="#3F3D56"/>
<path d="M211.444 222.477C209.918 223.215 208.379 223.927 206.826 224.613C204.245 223.148 201.694 221.616 199.158 220.05L208.564 215.92L211.444 222.477Z" fill="#FFB6B6"/>
<path d="M280.025 171.111C278.495 173.161 276.918 175.17 275.292 177.138C273.792 178.953 272.253 180.734 270.674 182.48C270.022 183.203 269.361 183.922 268.686 184.634C267.444 185.965 266.175 187.274 264.878 188.56C262.544 189.294 257.814 190.587 252.746 191.795C249.057 192.671 245.19 193.502 241.93 194.032C240.105 194.359 238.259 194.556 236.406 194.621C234.206 194.639 231.972 194.58 229.73 194.46C227.201 194.326 224.669 194.117 222.166 193.849C215.658 193.167 209.355 192.105 203.917 191.012C201.926 190.617 200.053 190.215 198.33 189.823C195.067 189.089 192.337 188.403 190.36 187.881C188.133 187.3 186.865 186.923 186.865 186.923L181.289 196.257L178.395 201.099L176.269 204.659L175.702 205.602C175.464 205.472 175.225 205.338 174.986 205.207C171.217 203.118 167.343 201.223 163.38 199.53C160.776 198.434 158.139 197.446 155.476 196.604H155.473C154.454 196.283 153.433 195.981 152.407 195.705C152.728 194.844 153.052 193.977 153.38 193.104C153.992 191.475 154.616 189.831 155.253 188.172C156.629 184.578 158.054 180.933 159.519 177.306C160.72 174.327 161.944 171.36 163.182 168.434C163.753 167.085 164.912 165.899 166.535 164.859C167.31 164.371 168.119 163.937 168.955 163.562C173.599 161.449 180.439 160.073 187.977 159.19C188.6 159.119 189.226 159.048 189.856 158.981C196.096 158.325 202.716 157.986 208.907 157.829C212.007 157.751 214.998 157.721 217.78 157.717C218.679 157.717 219.553 157.72 220.402 157.725H220.406C222.7 157.736 224.811 157.769 226.668 157.807C227.03 157.814 227.38 157.825 227.724 157.833H227.727C227.959 157.836 228.186 157.844 228.41 157.848C232.471 157.952 234.963 158.079 234.963 158.079L235.929 150.504L236.127 148.976L236.313 147.522V147.518L236.335 147.336L236.488 147.332L239.174 147.28L261.746 146.84L274.076 146.598L272.121 154.97L268.895 168.785C269.223 170.969 280.136 169.258 280.025 171.111Z" fill="#2F2E41"/>
<path d="M214.226 221.097C213.305 221.567 212.376 222.029 211.444 222.476C209.918 223.214 208.379 223.926 206.826 224.612C204.245 223.147 201.694 221.615 199.158 220.05C195.018 217.493 190.919 214.846 186.809 212.263C186.194 211.871 185.582 211.487 184.967 211.107H184.963C183.27 208.595 181.543 205.978 179.801 203.283C179.775 203.246 179.753 203.208 179.73 203.171C179.283 202.485 178.838 201.794 178.395 201.098C175.609 196.737 172.808 192.189 170.089 187.545L176.974 184.332L189.774 178.36L191.982 177.331L198.33 189.822L203.992 200.964L205.252 203.443L214.226 221.097Z" fill="#2F2E41"/>
<path d="M216.155 161.127L248.79 129.671L257.835 104.074L244.493 98.2754C237.64 104.837 230.232 125.272 230.232 125.272L207.775 153.828C207.6 153.888 207.425 153.951 207.253 154.027C206.241 154.473 205.362 155.172 204.7 156.057C204.038 156.942 203.615 157.982 203.473 159.078C203.33 160.173 203.473 161.287 203.888 162.312C204.302 163.336 204.973 164.236 205.838 164.925C206.702 165.614 207.729 166.069 208.82 166.245C209.912 166.422 211.03 166.314 212.067 165.932C213.105 165.55 214.026 164.907 214.742 164.065C215.458 163.223 215.945 162.211 216.155 161.127Z" fill="#FFB8B8"/>
<path d="M240.739 101.134L257.662 106.504L257.726 106.493C264.025 105.439 269.252 95.1564 272.527 86.7165C273.605 83.9327 273.585 80.8437 272.471 78.0741C271.357 75.3045 269.232 73.0609 266.527 71.7969C264.525 70.8779 262.305 70.5369 260.12 70.8126C257.934 71.0882 255.869 71.9695 254.158 73.3567L245.467 80.4538L240.739 101.134Z" fill="#CD314D"/>
<path d="M279.957 171.488L280.055 171.356C285.336 164.357 278.114 147.025 277.022 144.511L281.932 143.058L281.076 133.715L280.664 129.549L284.481 125.926L284.494 125.833L287.119 107.16L290.554 94.802C291.849 90.1299 291.876 85.1977 290.633 80.5115C289.391 75.8254 286.923 71.5542 283.482 68.1365L276.46 61.1684L268.048 48.0075L253.942 47.6436L248.87 56.6491C244.153 57.6112 239.923 60.1968 236.918 63.9553C233.912 67.7138 232.321 72.4071 232.421 77.2176L232.899 101.192L227.838 130.897L227.696 136.292L222.728 141.532L223.646 146.828L219.93 148.308L218.112 155.834C217.418 156.703 212.832 162.496 212.791 164.111C212.784 164.353 212.957 164.592 213.335 164.862C216.303 166.984 232.892 171.583 240.358 168.818C248.311 165.876 279.481 171.402 279.795 171.458L279.957 171.488Z" fill="#CD314D"/>
<path d="M259.763 43.6094C270.084 43.6094 278.45 35.2475 278.45 24.9326C278.45 14.6177 270.084 6.25586 259.763 6.25586C249.443 6.25586 241.076 14.6177 241.076 24.9326C241.076 35.2475 249.443 43.6094 259.763 43.6094Z" fill="#FFB8B8"/>
<path d="M257.483 43.8595C260.377 43.9046 263.27 43.7025 266.129 43.2556C268.963 42.6796 275.304 38.0357 277.071 35.2413C278.384 33.165 279.224 29.9228 279.698 27.5687C280.335 24.4534 280.311 21.2391 279.626 18.1339C278.942 15.0286 277.612 12.1017 275.724 9.54256C274.998 8.47215 273.997 7.61767 272.825 7.06952C272.721 7.02893 272.614 6.99296 272.506 6.96221C270.799 6.51323 269.265 5.56447 268.101 4.23773C267.875 3.96938 267.63 3.71763 267.368 3.48442C266.053 2.37486 264.493 1.59219 262.817 1.2004C260.112 0.476717 256.196 1.19507 251.18 3.33758C248.66 4.41402 245.904 4.02445 243.783 3.56476C243.664 3.5418 243.542 3.55037 243.427 3.58961C243.312 3.62884 243.21 3.69739 243.13 3.78842C242.228 4.63486 241.039 5.10866 239.801 5.11459C239.044 5.14785 238.248 6.19663 237.287 7.56428C237.069 7.87474 236.815 8.23707 236.631 8.45745L236.607 8.03406L236.178 8.50638C235.504 9.24874 235.029 10.1495 234.797 11.1247C234.566 12.0999 234.584 13.1178 234.852 14.0838C235.12 15.0497 235.628 15.9322 236.329 16.6491C237.03 17.366 237.901 17.8939 238.861 18.1837C239.624 18.3864 240.405 18.5108 241.192 18.555C241.669 18.5979 242.163 18.6423 242.636 18.7243C244.154 19.0349 245.565 19.7336 246.732 20.7522C247.899 21.7708 248.782 23.0743 249.294 24.5357C249.415 24.8735 249.613 25.1789 249.871 25.4285C250.129 25.678 250.441 25.8649 250.782 25.9748C251.124 26.0847 251.487 26.1146 251.842 26.0622C252.197 26.0098 252.536 25.8766 252.831 25.6728C253.324 25.2893 253.902 25.0307 254.516 24.9189C255.13 24.8071 255.763 24.8455 256.359 25.0307C256.874 25.3171 257.275 25.7718 257.495 26.3186C257.762 26.9278 258.204 27.4437 258.766 27.8006C260.687 28.7903 260.819 33.1747 260.129 36.8297C259.464 40.3528 258.15 42.9014 256.933 43.0274C255.996 43.1243 255.889 43.1908 255.821 43.3564L255.76 43.5046L255.866 43.6433C256.383 43.8308 256.935 43.9045 257.483 43.8595Z" fill="#2F2E41"/>
<path d="M245.379 95.487L238.174 81.1299C227.716 81.8439 206.959 93.9296 206.959 93.9296L167.686 102.252C166.523 101.805 165.262 101.672 164.031 101.867C162.8 102.062 161.642 102.577 160.673 103.361C159.705 104.146 158.96 105.171 158.515 106.334C158.069 107.498 157.937 108.758 158.134 109.988C158.33 111.218 158.847 112.375 159.633 113.342C160.419 114.309 161.446 115.052 162.61 115.496C163.775 115.94 165.036 116.07 166.266 115.872C167.497 115.674 168.654 115.156 169.62 114.37L219.578 110.791L245.379 95.487Z" fill="#FFB8B8"/>
<path d="M242.473 97.8449L261.291 83.8683L264.605 71.9298C265.248 69.5837 265.22 67.1048 264.527 64.7734C263.834 62.4419 262.501 60.3507 260.681 58.7361C258.199 56.5641 254.985 55.4151 251.687 55.5214C248.39 55.6277 245.256 56.9815 242.919 59.3089C235.838 66.3732 227.761 76.2286 229.496 83.0626L229.514 83.1318L242.473 97.8449Z" fill="#CD314D"/>
<path d="M219.179 135.229H168.828V141.938H219.179V135.229Z" fill="white"/>
<path d="M90.5057 135.229H40.1553V141.938H90.5057V135.229Z" fill="white"/>
<path d="M96.385 102.961V134.909C96.3853 135.316 96.5473 135.706 96.8353 135.994C97.1234 136.282 97.5139 136.444 97.9213 136.444H145.29C145.697 136.444 146.088 136.282 146.376 135.994C146.664 135.706 146.826 135.316 146.826 134.909V102.961C146.825 102.555 146.663 102.165 146.375 101.877C146.087 101.59 145.697 101.428 145.29 101.428H97.9213C97.5143 101.428 97.1241 101.59 96.8361 101.877C96.5482 102.165 96.386 102.555 96.385 102.961Z" fill="#3F3D56"/>
<path d="M97.4963 103.358V134.514C97.4967 134.732 97.5833 134.94 97.7372 135.094C97.8911 135.248 98.0998 135.334 98.3174 135.335H144.895C145.113 135.334 145.322 135.248 145.476 135.094C145.629 134.94 145.716 134.732 145.716 134.514V103.358C145.716 103.141 145.63 102.932 145.476 102.778C145.322 102.623 145.113 102.537 144.895 102.536H98.3174C98.0995 102.537 97.8907 102.623 97.7367 102.778C97.5828 102.932 97.4964 103.141 97.4963 103.358Z" fill="#CD314D"/>
<path d="M95.3944 141.139C95.4812 141.248 95.5915 141.336 95.717 141.396C95.8426 141.456 95.9801 141.487 96.1193 141.486H146.84C146.978 141.486 147.115 141.455 147.24 141.395C147.366 141.335 147.476 141.248 147.563 141.141C147.651 141.033 147.713 140.907 147.746 140.772C147.778 140.638 147.78 140.497 147.752 140.362L146.965 136.624C146.932 136.471 146.862 136.33 146.76 136.211C146.659 136.093 146.529 136.002 146.383 135.946C146.278 135.905 146.166 135.884 146.052 135.884H96.9035C96.7901 135.884 96.6778 135.905 96.5723 135.946C96.4266 136.002 96.297 136.093 96.1955 136.211C96.0941 136.33 96.0238 136.471 95.9912 136.624L95.2038 140.362C95.1758 140.497 95.1784 140.637 95.2114 140.772C95.2443 140.906 95.3069 141.032 95.3944 141.139Z" fill="#2F2E41"/>
<path d="M144.312 137.493H145.51C145.611 137.493 145.692 137.412 145.692 137.311V136.738C145.692 136.638 145.611 136.556 145.51 136.556H144.312C144.211 136.556 144.13 136.638 144.13 136.738V137.311C144.13 137.412 144.211 137.493 144.312 137.493Z" fill="#3F3D56"/>
<path d="M141.188 137.493H142.386C142.486 137.493 142.568 137.412 142.568 137.311V136.738C142.568 136.638 142.486 136.556 142.386 136.556H141.188C141.087 136.556 141.006 136.638 141.006 136.738V137.311C141.006 137.412 141.087 137.493 141.188 137.493Z" fill="#3F3D56"/>
<path d="M138.063 137.493H139.261C139.362 137.493 139.443 137.412 139.443 137.311V136.738C139.443 136.638 139.362 136.556 139.261 136.556H138.063C137.963 136.556 137.881 136.638 137.881 136.738V137.311C137.881 137.412 137.963 137.493 138.063 137.493Z" fill="#3F3D56"/>
<path d="M134.939 137.493H136.137C136.238 137.493 136.319 137.412 136.319 137.311V136.738C136.319 136.638 136.238 136.556 136.137 136.556H134.939C134.838 136.556 134.757 136.638 134.757 136.738V137.311C134.757 137.412 134.838 137.493 134.939 137.493Z" fill="#3F3D56"/>
<path d="M131.815 137.493H133.013C133.113 137.493 133.195 137.412 133.195 137.311V136.738C133.195 136.638 133.113 136.556 133.013 136.556H131.815C131.714 136.556 131.633 136.638 131.633 136.738V137.311C131.633 137.412 131.714 137.493 131.815 137.493Z" fill="#3F3D56"/>
<path d="M128.69 137.493H129.888C129.989 137.493 130.07 137.412 130.07 137.311V136.738C130.07 136.638 129.989 136.556 129.888 136.556H128.69C128.59 136.556 128.508 136.638 128.508 136.738V137.311C128.508 137.412 128.59 137.493 128.69 137.493Z" fill="#3F3D56"/>
<path d="M125.566 137.493H126.764C126.865 137.493 126.946 137.412 126.946 137.311V136.738C126.946 136.638 126.865 136.556 126.764 136.556H125.566C125.465 136.556 125.384 136.638 125.384 136.738V137.311C125.384 137.412 125.465 137.493 125.566 137.493Z" fill="#3F3D56"/>
<path d="M122.442 137.493H123.64C123.74 137.493 123.822 137.412 123.822 137.311V136.738C123.822 136.638 123.74 136.556 123.64 136.556H122.442C122.341 136.556 122.26 136.638 122.26 136.738V137.311C122.26 137.412 122.341 137.493 122.442 137.493Z" fill="#3F3D56"/>
<path d="M119.317 137.493H120.515C120.616 137.493 120.697 137.412 120.697 137.311V136.738C120.697 136.638 120.616 136.556 120.515 136.556H119.317C119.217 136.556 119.135 136.638 119.135 136.738V137.311C119.135 137.412 119.217 137.493 119.317 137.493Z" fill="#3F3D56"/>
<path d="M116.193 137.493H117.391C117.492 137.493 117.573 137.412 117.573 137.311V136.738C117.573 136.638 117.492 136.556 117.391 136.556H116.193C116.092 136.556 116.011 136.638 116.011 136.738V137.311C116.011 137.412 116.092 137.493 116.193 137.493Z" fill="#3F3D56"/>
<path d="M113.069 137.493H114.267C114.367 137.493 114.449 137.412 114.449 137.311V136.738C114.449 136.638 114.367 136.556 114.267 136.556H113.069C112.968 136.556 112.887 136.638 112.887 136.738V137.311C112.887 137.412 112.968 137.493 113.069 137.493Z" fill="#3F3D56"/>
<path d="M109.944 137.493H111.142C111.243 137.493 111.324 137.412 111.324 137.311V136.738C111.324 136.638 111.243 136.556 111.142 136.556H109.944C109.844 136.556 109.762 136.638 109.762 136.738V137.311C109.762 137.412 109.844 137.493 109.944 137.493Z" fill="#3F3D56"/>
<path d="M106.82 137.493H108.018C108.119 137.493 108.2 137.412 108.2 137.311V136.738C108.2 136.638 108.119 136.556 108.018 136.556H106.82C106.719 136.556 106.638 136.638 106.638 136.738V137.311C106.638 137.412 106.719 137.493 106.82 137.493Z" fill="#3F3D56"/>
<path d="M103.696 137.493H104.894C104.994 137.493 105.076 137.412 105.076 137.311V136.738C105.076 136.638 104.994 136.556 104.894 136.556H103.696C103.595 136.556 103.514 136.638 103.514 136.738V137.311C103.514 137.412 103.595 137.493 103.696 137.493Z" fill="#3F3D56"/>
<path d="M100.571 137.493H101.769C101.87 137.493 101.951 137.412 101.951 137.311V136.738C101.951 136.638 101.87 136.556 101.769 136.556H100.571C100.471 136.556 100.389 136.638 100.389 136.738V137.311C100.389 137.412 100.471 137.493 100.571 137.493Z" fill="#3F3D56"/>
<path d="M97.4471 137.493H98.6451C98.7456 137.493 98.8271 137.412 98.8271 137.311V136.738C98.8271 136.638 98.7456 136.556 98.6451 136.556H97.4471C97.3465 136.556 97.265 136.638 97.265 136.738V137.311C97.265 137.412 97.3465 137.493 97.4471 137.493Z" fill="#3F3D56"/>
<path d="M144.349 139.055H145.547C145.647 139.055 145.729 138.973 145.729 138.873V138.3C145.729 138.199 145.647 138.118 145.547 138.118H144.349C144.248 138.118 144.167 138.199 144.167 138.3V138.873C144.167 138.973 144.248 139.055 144.349 139.055Z" fill="#3F3D56"/>
<path d="M141.224 139.055H142.423C142.523 139.055 142.605 138.973 142.605 138.873V138.3C142.605 138.199 142.523 138.118 142.423 138.118H141.224C141.124 138.118 141.042 138.199 141.042 138.3V138.873C141.042 138.973 141.124 139.055 141.224 139.055Z" fill="#3F3D56"/>
<path d="M138.1 139.055H139.298C139.399 139.055 139.48 138.973 139.48 138.873V138.3C139.48 138.199 139.399 138.118 139.298 138.118H138.1C138 138.118 137.918 138.199 137.918 138.3V138.873C137.918 138.973 138 139.055 138.1 139.055Z" fill="#3F3D56"/>
<path d="M134.976 139.055H136.174C136.274 139.055 136.356 138.973 136.356 138.873V138.3C136.356 138.199 136.274 138.118 136.174 138.118H134.976C134.875 138.118 134.794 138.199 134.794 138.3V138.873C134.794 138.973 134.875 139.055 134.976 139.055Z" fill="#3F3D56"/>
<path d="M131.852 139.055H133.05C133.15 139.055 133.232 138.973 133.232 138.873V138.3C133.232 138.199 133.15 138.118 133.05 138.118H131.852C131.751 138.118 131.67 138.199 131.67 138.3V138.873C131.67 138.973 131.751 139.055 131.852 139.055Z" fill="#3F3D56"/>
<path d="M128.727 139.055H129.925C130.026 139.055 130.107 138.973 130.107 138.873V138.3C130.107 138.199 130.026 138.118 129.925 138.118H128.727C128.627 138.118 128.545 138.199 128.545 138.3V138.873C128.545 138.973 128.627 139.055 128.727 139.055Z" fill="#3F3D56"/>
<path d="M125.603 139.055H126.801C126.902 139.055 126.983 138.973 126.983 138.873V138.3C126.983 138.199 126.902 138.118 126.801 138.118H125.603C125.502 138.118 125.421 138.199 125.421 138.3V138.873C125.421 138.973 125.502 139.055 125.603 139.055Z" fill="#3F3D56"/>
<path d="M122.479 139.055H123.677C123.777 139.055 123.859 138.973 123.859 138.873V138.3C123.859 138.199 123.777 138.118 123.677 138.118H122.479C122.378 138.118 122.296 138.199 122.296 138.3V138.873C122.296 138.973 122.378 139.055 122.479 139.055Z" fill="#3F3D56"/>
<path d="M119.354 139.055H120.552C120.653 139.055 120.734 138.973 120.734 138.873V138.3C120.734 138.199 120.653 138.118 120.552 138.118H119.354C119.254 138.118 119.172 138.199 119.172 138.3V138.873C119.172 138.973 119.254 139.055 119.354 139.055Z" fill="#3F3D56"/>
<path d="M116.23 139.055H117.428C117.528 139.055 117.61 138.973 117.61 138.873V138.3C117.61 138.199 117.528 138.118 117.428 138.118H116.23C116.129 138.118 116.048 138.199 116.048 138.3V138.873C116.048 138.973 116.129 139.055 116.23 139.055Z" fill="#3F3D56"/>
<path d="M113.106 139.055H114.304C114.404 139.055 114.486 138.973 114.486 138.873V138.3C114.486 138.199 114.404 138.118 114.304 138.118H113.106C113.005 138.118 112.924 138.199 112.924 138.3V138.873C112.924 138.973 113.005 139.055 113.106 139.055Z" fill="#3F3D56"/>
<path d="M109.981 139.055H111.179C111.28 139.055 111.361 138.973 111.361 138.873V138.3C111.361 138.199 111.28 138.118 111.179 138.118H109.981C109.881 138.118 109.799 138.199 109.799 138.3V138.873C109.799 138.973 109.881 139.055 109.981 139.055Z" fill="#3F3D56"/>
<path d="M106.857 139.055H108.055C108.156 139.055 108.237 138.973 108.237 138.873V138.3C108.237 138.199 108.156 138.118 108.055 138.118H106.857C106.756 138.118 106.675 138.199 106.675 138.3V138.873C106.675 138.973 106.756 139.055 106.857 139.055Z" fill="#3F3D56"/>
<path d="M103.733 139.055H104.931C105.031 139.055 105.113 138.973 105.113 138.873V138.3C105.113 138.199 105.031 138.118 104.931 138.118H103.733C103.632 138.118 103.551 138.199 103.551 138.3V138.873C103.551 138.973 103.632 139.055 103.733 139.055Z" fill="#3F3D56"/>
<path d="M100.608 139.055H101.806C101.907 139.055 101.988 138.973 101.988 138.873V138.3C101.988 138.199 101.907 138.118 101.806 138.118H100.608C100.508 138.118 100.426 138.199 100.426 138.3V138.873C100.426 138.973 100.508 139.055 100.608 139.055Z" fill="#3F3D56"/>
<path d="M97.4839 139.055H98.6819C98.7825 139.055 98.864 138.973 98.864 138.873V138.3C98.864 138.199 98.7825 138.118 98.6819 138.118H97.4839C97.3834 138.118 97.3018 138.199 97.3018 138.3V138.873C97.3018 138.973 97.3834 139.055 97.4839 139.055Z" fill="#3F3D56"/>
<path d="M118.417 140.929H130.55C130.651 140.929 130.732 140.847 130.732 140.747V140.174C130.732 140.073 130.651 139.992 130.55 139.992H118.417C118.316 139.992 118.235 140.073 118.235 140.174V140.747C118.235 140.847 118.316 140.929 118.417 140.929Z" fill="#3F3D56"/>
</g>
<defs>
<clipPath id="clip0_76_227">
<rect width="310.763" height="236" fill="white"/>
</clipPath>
</defs>
</svg>
