<svg width="262" height="304" viewBox="0 0 262 304" fill="none" xmlns="http://www.w3.org/2000/svg">
<g clip-path="url(#clip0_76_742)">
<path d="M262 115.747C262 116.609 261.99 117.469 261.969 118.327C261.961 118.889 261.943 119.45 261.922 120.011C261.917 120.172 261.913 120.329 261.904 120.49C261.891 120.799 261.878 121.104 261.865 121.404C261.769 123.41 261.621 125.401 261.421 127.378C261.412 127.474 261.404 127.57 261.395 127.661C261.373 127.857 261.356 128.053 261.33 128.249C261.269 128.836 261.204 129.423 261.13 130.002C261.082 130.394 261.034 130.781 260.982 131.173C260.956 131.36 260.929 131.547 260.908 131.73C260.877 131.934 260.851 132.134 260.821 132.334C260.808 132.421 260.795 132.509 260.782 132.6C260.738 132.896 260.695 133.196 260.647 133.492C260.59 133.879 260.529 134.262 260.464 134.649C260.403 135.032 260.338 135.415 260.268 135.798C260.203 136.181 260.133 136.564 260.064 136.947C259.994 137.334 259.92 137.717 259.846 138.1C259.472 139.997 259.054 141.878 258.593 143.744C258.41 144.47 258.223 145.196 258.031 145.919C257.714 147.094 257.379 148.263 257.026 149.427C256.926 149.749 256.826 150.071 256.726 150.388C256.613 150.754 256.495 151.119 256.378 151.481C256.26 151.846 256.143 152.207 256.021 152.568C255.899 152.93 255.777 153.291 255.651 153.652C255.529 154.009 255.403 154.37 255.273 154.727C255.146 155.088 255.016 155.445 254.885 155.801C254.751 156.158 254.62 156.515 254.485 156.868C254.215 157.581 253.938 158.288 253.654 158.987C253.515 159.339 253.371 159.692 253.223 160.04C252.644 161.441 252.038 162.826 251.404 164.195C251.265 164.5 251.126 164.805 250.982 165.105C250.887 165.305 250.795 165.501 250.699 165.701C250.538 166.032 250.382 166.358 250.221 166.684C250.06 167.015 249.894 167.35 249.725 167.685C249.39 168.347 249.049 169.006 248.702 169.665C248.358 170.322 248.006 170.979 247.645 171.627C247.284 172.276 246.918 172.924 246.548 173.564C246.361 173.886 246.174 174.208 245.987 174.525C245.234 175.8 244.457 177.061 243.654 178.307C242.858 179.547 242.036 180.773 241.187 181.984C240.765 182.589 240.334 183.193 239.899 183.79C239.725 184.029 239.551 184.264 239.377 184.499C239.164 184.795 238.942 185.086 238.72 185.378C229.29 197.921 217.405 208.414 203.79 216.219C190.176 224.023 175.115 228.975 159.525 230.773C143.936 232.572 128.143 231.179 113.109 226.68C98.0751 222.18 84.1137 214.669 72.0749 204.602C70.8043 203.541 69.5569 202.453 68.3327 201.339C60.4772 194.185 53.6385 185.989 48.0074 176.98C47.3068 175.853 46.6193 174.713 45.9579 173.564C35.8043 155.989 30.4739 136.044 30.5061 115.747C30.5061 51.8207 82.3268 2.1246e-05 146.253 2.1246e-05C165.488 -0.011637 184.423 4.77476 201.342 13.9258C218.262 23.0768 232.631 36.3035 243.15 52.4081C243.341 52.6997 243.533 52.9956 243.724 53.2915C254.183 69.5677 260.368 88.2183 261.708 107.518C261.904 110.234 262.001 112.977 262 115.747Z" fill="#F2F2F2"/>
<path d="M243.724 53.2915H83.3973C83.282 53.2887 83.1724 53.241 83.0919 53.1584C83.0113 53.0759 82.9662 52.9652 82.9662 52.8499C82.9662 52.7346 83.0113 52.6238 83.0919 52.5413C83.1724 52.4588 83.282 52.411 83.3973 52.4082H243.15C243.341 52.6998 243.533 52.9956 243.724 53.2915Z" fill="#CACACA"/>
<path d="M93.1243 47.1077C95.7499 47.1077 97.8784 44.9318 97.8784 42.2477C97.8784 39.5636 95.7499 37.3877 93.1243 37.3877C90.4988 37.3877 88.3703 39.5636 88.3703 42.2477C88.3703 44.9318 90.4988 47.1077 93.1243 47.1077Z" fill="#3F3D56"/>
<path d="M109.547 47.1077C112.173 47.1077 114.301 44.9318 114.301 42.2477C114.301 39.5636 112.173 37.3877 109.547 37.3877C106.922 37.3877 104.793 39.5636 104.793 42.2477C104.793 44.9318 106.922 47.1077 109.547 47.1077Z" fill="#3F3D56"/>
<path d="M125.97 47.1077C128.596 47.1077 130.724 44.9318 130.724 42.2477C130.724 39.5636 128.596 37.3877 125.97 37.3877C123.345 37.3877 121.216 39.5636 121.216 42.2477C121.216 44.9318 123.345 47.1077 125.97 47.1077Z" fill="#3F3D56"/>
<path d="M261.708 107.519C257.527 109.42 253.78 112.492 250.508 116.717C246.727 121.604 242.675 125.046 238.537 127.378C238.341 127.487 238.15 127.592 237.954 127.696C234.244 129.695 230.176 130.942 225.984 131.364C224.717 131.492 223.445 131.553 222.172 131.547C221.641 131.543 221.11 131.53 220.583 131.503C219.335 131.443 218.099 131.321 216.885 131.147C209.914 130.155 203.609 127.474 198.94 124.955C192.542 121.426 185.598 118.996 178.397 117.766C177.109 117.553 175.824 117.386 174.541 117.266C174.011 117.213 173.484 117.174 172.957 117.14C171.665 117.052 170.374 117.012 169.085 117.018C168.423 117.022 167.766 117.035 167.105 117.061C155.991 117.496 141.497 120.664 128.499 131.73C128.325 131.878 128.156 132.026 127.982 132.174C127.821 132.313 127.66 132.456 127.499 132.6C125.441 134.429 123.502 136.386 121.694 138.461C119.62 140.838 117.702 143.345 115.95 145.967C113.87 149.038 111.44 151.856 108.709 154.366C104.67 158.093 101.436 162.606 99.2046 167.629C96.9733 172.651 95.792 178.077 95.7334 183.572V183.79C95.7291 184.025 95.7291 184.264 95.7291 184.499H239.381C239.555 184.264 239.73 184.029 239.899 183.79C240.334 183.194 240.765 182.589 241.187 181.984C242.036 180.774 242.858 179.549 243.655 178.307C244.46 177.063 245.237 175.802 245.987 174.526C246.174 174.208 246.361 173.886 246.548 173.564C246.918 172.924 247.284 172.276 247.645 171.628C248.006 170.979 248.358 170.322 248.702 169.665C249.05 169.008 249.391 168.348 249.725 167.685C249.894 167.35 250.06 167.015 250.221 166.684C250.382 166.358 250.538 166.032 250.699 165.701C250.795 165.501 250.887 165.305 250.982 165.105C251.126 164.805 251.265 164.5 251.404 164.195C252.04 162.825 252.646 161.44 253.223 160.04C253.371 159.692 253.515 159.339 253.654 158.987C253.937 158.286 254.214 157.58 254.485 156.868C254.62 156.515 254.751 156.158 254.885 155.802C255.016 155.445 255.147 155.088 255.273 154.727C255.403 154.37 255.529 154.009 255.651 153.652C255.777 153.291 255.899 152.93 256.021 152.569C256.143 152.207 256.26 151.846 256.378 151.481C256.495 151.12 256.613 150.754 256.726 150.388C256.826 150.071 256.926 149.749 257.026 149.427C257.379 148.265 257.714 147.096 258.031 145.92C258.223 145.197 258.41 144.472 258.593 143.744C259.054 141.882 259.472 140 259.846 138.1C259.92 137.717 259.994 137.334 260.064 136.947C260.133 136.564 260.203 136.181 260.268 135.798C260.338 135.415 260.403 135.032 260.464 134.65C260.529 134.262 260.59 133.879 260.647 133.492C260.695 133.196 260.738 132.896 260.782 132.6C260.795 132.509 260.808 132.422 260.821 132.335C260.851 132.13 260.877 131.93 260.903 131.73C260.93 131.543 260.956 131.356 260.982 131.173C261.034 130.781 261.082 130.394 261.13 130.002C261.204 129.424 261.269 128.836 261.33 128.249H261.334C261.352 128.053 261.373 127.857 261.395 127.661C261.404 127.57 261.413 127.474 261.421 127.378C261.621 125.403 261.769 123.411 261.865 121.404C261.878 121.104 261.891 120.799 261.904 120.49C261.913 120.329 261.917 120.172 261.922 120.011C261.943 119.45 261.961 118.889 261.969 118.327C261.991 117.47 262.001 116.61 262 115.747C262 112.98 261.903 110.237 261.708 107.519Z" fill="#CD314D"/>
<path d="M127.014 136.701H125.426V183.234H127.014V136.701Z" fill="#3F3D56"/>
<path d="M174.544 114.969H172.956V183.235H174.544V114.969Z" fill="#3F3D56"/>
<path d="M222.171 129.257H220.583V183.235H222.171V129.257Z" fill="#3F3D56"/>
<path d="M173.848 120.919C176.53 120.919 178.704 118.745 178.704 116.063C178.704 113.38 176.53 111.206 173.848 111.206C171.165 111.206 168.991 113.38 168.991 116.063C168.991 118.745 171.165 120.919 173.848 120.919Z" fill="#3F3D56"/>
<path d="M221.475 134.414C224.157 134.414 226.332 132.239 226.332 129.557C226.332 126.875 224.157 124.7 221.475 124.7C218.793 124.7 216.618 126.875 216.618 129.557C216.618 132.239 218.793 134.414 221.475 134.414Z" fill="#3F3D56"/>
<path d="M125.35 137.642C128.032 137.642 130.207 135.468 130.207 132.785C130.207 130.103 128.032 127.929 125.35 127.929C122.668 127.929 120.493 130.103 120.493 132.785C120.493 135.468 122.668 137.642 125.35 137.642Z" fill="#3F3D56"/>
<path d="M239.899 183.789C239.725 184.028 239.551 184.263 239.377 184.498C239.164 184.794 238.942 185.086 238.72 185.377H95.5724V183.789H239.899Z" fill="#3F3D56"/>
<path d="M55.3126 298.125H59.9125L62.1008 280.382L55.3118 280.382L55.3126 298.125Z" fill="#FFB8B8"/>
<path d="M67.2797 298.314C66.7457 297.775 66.1096 297.347 65.4086 297.056C64.7071 296.769 63.9562 296.621 63.1981 296.621L60.4872 294.567L60.3436 294.624L55.4353 296.621H54.1385V302.583H68.9724V302.396C68.9746 301.637 68.8262 300.886 68.5356 300.185C68.245 299.484 67.8181 298.848 67.2797 298.314Z" fill="#2F2E41"/>
<path d="M76.6837 298.125H81.2835L83.4718 280.382L76.6828 280.382L76.6837 298.125Z" fill="#FFB8B8"/>
<path d="M88.6538 298.314C88.1189 297.774 87.4812 297.346 86.7783 297.056C86.077 296.768 85.326 296.621 84.5678 296.621L81.8613 294.567L81.7133 294.628L76.805 296.621H75.5082L75.5126 302.583H90.3421V302.396C90.3442 301.637 90.196 300.886 89.9062 300.186C89.6165 299.485 89.1908 298.849 88.6538 298.314Z" fill="#2F2E41"/>
<path d="M80.3605 201.026L44.2185 201.969L44.8471 219.569C44.8471 219.569 44.2185 224.283 45.4756 225.54C46.7327 226.797 47.3613 226.797 46.7327 228.997C46.1042 231.197 49.4251 234.79 49.0218 235.194C48.6184 235.597 47.6756 237.797 47.6756 237.797L50.8184 255.711C50.8184 255.711 53.0183 286.824 53.6469 287.453C54.2754 288.082 54.904 287.453 54.2754 289.024C53.6469 290.596 53.0183 289.967 53.6469 290.596C54.2036 291.196 54.7282 291.826 55.2183 292.481H62.8166C62.8166 292.481 63.3895 289.339 63.3895 289.024C63.3895 288.71 64.0181 286.824 64.0181 286.51C64.0181 286.196 63.4625 285.64 63.4625 285.64C63.2705 285.001 63.1408 284.345 63.0752 283.682C63.0752 283.053 61.1896 258.854 61.1896 258.854L64.9609 227.426L74.075 258.225C74.075 258.225 74.075 285.253 74.7035 285.882C75.3321 286.51 75.3321 286.196 75.0178 287.453C74.7035 288.71 73.4464 288.396 74.3893 289.339C75.3321 290.281 75.6464 288.71 75.3321 290.281L75.0178 291.853L84.4462 291.988C84.4462 291.988 85.7033 289.339 85.0747 288.396C84.4462 287.453 84.4839 287.71 85.2507 286.167C86.0176 284.624 86.3319 284.31 86.0176 283.996C85.7033 283.682 85.7033 282.01 85.7033 282.01L84.1319 251.939C84.1319 251.939 83.8176 220.197 83.8176 219.255C83.7939 218.769 83.8833 218.285 84.0787 217.841V216.561L82.8748 212.026L80.3605 201.026Z" fill="#2F2E41"/>
<path d="M121.262 132.482C121.089 132.964 120.811 133.403 120.449 133.767C120.088 134.131 119.651 134.411 119.169 134.588C118.688 134.765 118.173 134.834 117.662 134.79C117.151 134.747 116.655 134.592 116.21 134.336L100.522 147.479L99.6693 141.055L115.014 129.308C115.493 128.59 116.219 128.072 117.055 127.853C117.89 127.634 118.777 127.729 119.548 128.12C120.318 128.511 120.918 129.171 121.234 129.975C121.55 130.779 121.56 131.671 121.262 132.482H121.262Z" fill="#FFB8B8"/>
<path d="M52.0846 137.906C57.4653 137.906 61.8272 133.544 61.8272 128.164C61.8272 122.783 57.4653 118.421 52.0846 118.421C46.7038 118.421 42.3419 122.783 42.3419 128.164C42.3419 133.544 46.7038 137.906 52.0846 137.906Z" fill="#FFB8B8"/>
<path d="M59.9829 118.467C59.0759 116.305 55.1888 115.021 49.0379 115.214C42.887 115.408 41.8099 122.743 41.8099 122.743C38.422 125.901 43.8917 135.76 44.8406 134.4C45.7896 133.041 47.3828 134.326 47.3828 134.326L45.8645 125.786C47.4679 126.402 49.1923 126.817 50.7005 126.098L48.2017 124.762L54.4147 125.535L51.8524 123.564C51.9145 123.543 51.9766 123.522 52.0388 123.501C53.0663 123.944 54.1667 124.194 55.2849 124.238C56.5912 124.228 57.9794 123.616 58.5268 122.43C58.6723 122.104 58.7512 121.753 58.7586 121.396C60.5598 121.981 61.5055 124.091 61.5055 124.091C61.1635 122.175 60.6541 120.293 59.9829 118.467Z" fill="#2F2E41"/>
<path d="M59.8832 138.342C57.7075 138.342 56.3063 138.642 52.921 139.212C46.6724 140.265 50.4145 146.202 50.4145 146.202C50.4145 146.202 50.6974 146.059 49.9316 146.202C49.1657 146.346 46.5549 148.604 46.5549 148.604L41.8858 152.751C34.8496 158.273 36.4248 166.889 36.4248 166.889L46.6854 177.215L42.1904 197.932C42.1904 197.932 44.1007 201.008 43.1129 202.387C42.1251 203.767 51.8157 203.371 51.8157 203.371C58.5038 206.352 82.0665 203.832 82.0665 203.832C81.7402 202.979 78.5854 196.369 78.5854 196.369C79.9561 194.002 78.6507 190.582 78.6507 190.582C78.6507 190.582 77.2887 174.404 76.4184 172.167C75.5481 169.93 78.6463 157.812 80.6828 157.942C82.7192 158.073 95.8735 151.363 95.8735 151.363C95.8735 151.363 95.5428 150.837 99.8855 149.061C102.38 148.081 104.667 146.639 106.626 144.81L108.41 141.246C107.553 141.577 104.659 136.12 104.659 136.12L103.397 136.601L102.666 136.39C102.666 136.39 96.9613 138.013 95.7951 139.197C94.629 140.38 94.2373 140.049 93.1843 140.315C92.1313 140.58 92.0007 141.32 91.67 141.237C91.3393 141.155 90.7519 142.155 90.2906 142.025C89.8294 141.894 88.8416 142.421 88.1846 142.551C87.5275 142.682 82.8585 144.658 82.8585 144.658C79.9691 143.195 72.1366 143.787 72.1366 143.787C72.1366 143.787 69.5737 142.277 68.847 143.787C68.6515 144.216 68.3375 144.58 67.9421 144.837C67.5466 145.094 67.0861 145.232 66.6147 145.236L63.4904 143.9C63.3089 144.563 59.901 137.655 59.8832 138.342Z" fill="#3F3D56"/>
<path d="M24.947 278.92L24.5129 269.158C19.987 266.739 14.9389 265.461 9.80707 265.436C16.87 271.21 15.9873 282.341 20.7759 290.107C22.2879 292.517 24.323 294.556 26.7304 296.073C29.1377 297.59 31.8556 298.546 34.6826 298.87L40.5931 302.489C41.4041 297.968 41.2253 293.324 40.069 288.879C38.9126 284.433 36.8063 280.291 33.8951 276.738C32.2421 274.761 30.3468 273 28.2537 271.496C26.8382 275.229 24.947 278.92 24.947 278.92Z" fill="#F2F2F2"/>
<path d="M2.29086e-06 302.738C-0.000200517 302.807 0.0130644 302.874 0.0390171 302.937C0.0649698 303 0.103101 303.057 0.151228 303.105C0.199355 303.153 0.256519 303.191 0.319438 303.217C0.382357 303.243 0.449785 303.256 0.517845 303.256H123.788C123.926 303.256 124.057 303.202 124.154 303.105C124.252 303.008 124.306 302.876 124.306 302.738C124.306 302.601 124.252 302.469 124.154 302.372C124.057 302.275 123.926 302.221 123.788 302.221H0.517845C0.449786 302.221 0.382356 302.234 0.319438 302.26C0.25652 302.286 0.199355 302.324 0.151228 302.372C0.103101 302.42 0.0649707 302.477 0.0390171 302.54C0.0130636 302.603 -0.000198207 302.67 2.29086e-06 302.738Z" fill="#CCCCCC"/>
<path d="M128.581 131.729H125.97V132.6H128.581V131.729Z" fill="#3F3D56"/>
<path d="M133.852 131.729V132.6H139.126V131.729H133.852ZM144.399 131.729V132.6H149.669V131.729H144.399ZM154.943 131.729V132.6H160.217V131.729H154.943ZM165.486 131.729V132.6H170.76V131.729H165.486ZM176.034 131.729V132.6H181.304V131.729H176.034ZM186.577 131.729V132.6H191.851V131.729H186.577ZM197.121 131.729V132.6H202.395V131.729H197.121ZM207.669 131.729V132.6H212.938V131.729H207.669ZM218.212 131.729V132.6H223.486V131.729H218.212ZM228.755 131.729V132.6H234.029V131.729H228.755ZM239.299 131.729V132.6H244.573V131.729H239.299ZM249.847 131.729V132.6H255.116V131.729H249.847ZM260.39 131.729V132.6H260.782C260.795 132.508 260.808 132.421 260.821 132.334C260.851 132.134 260.877 131.934 260.908 131.729H260.39Z" fill="#3F3D56"/>
<path d="M173.836 114.324H171.225V115.194H173.836V114.324Z" fill="#3F3D56"/>
<path d="M179.106 114.323V115.194H184.38V114.323H179.106ZM189.654 114.323V115.194H194.923V114.323H189.654ZM200.197 114.323V115.194H205.471V114.323H200.197ZM210.741 114.323V115.194H216.014V114.323H210.741ZM221.288 114.323V115.194H226.558V114.323H221.288ZM231.832 114.323V115.194H237.106V114.323H231.832ZM242.375 114.323V115.194H247.649V114.323H242.375ZM252.923 114.323V115.194H258.192V114.323H252.923Z" fill="#3F3D56"/>
<path d="M222.136 127.378H219.525V128.248H222.136V127.378Z" fill="#3F3D56"/>
<path d="M227.406 127.378V128.248H232.68V127.378H227.406ZM237.954 127.378V128.248H243.224V127.378H237.954ZM248.498 127.378V128.248H253.772V127.378H248.498ZM259.041 127.378V128.248H261.334C261.352 128.052 261.373 127.857 261.395 127.661C261.404 127.569 261.413 127.474 261.421 127.378H259.041Z" fill="#3F3D56"/>
<path d="M66.6227 218.139V190.112C66.6233 189.545 66.8489 189.001 67.2501 188.6C67.6512 188.199 68.195 187.973 68.7623 187.973H89.9289C90.4962 187.973 91.0401 188.199 91.4412 188.6C91.8423 189.001 92.0679 189.545 92.0686 190.112V218.139C92.0679 218.707 91.8423 219.25 91.4412 219.652C91.04 220.053 90.4962 220.278 89.9289 220.279H68.7623C68.195 220.278 67.6512 220.053 67.2501 219.652C66.8489 219.25 66.6233 218.707 66.6227 218.139Z" fill="#E6E6E6"/>
<path d="M68.2463 209.674V191.655C68.2469 191.124 68.4582 190.615 68.8338 190.239C69.2095 189.863 69.7188 189.652 70.2501 189.651H88.4411C88.9723 189.652 89.4817 189.863 89.8574 190.239C90.233 190.615 90.4444 191.124 90.445 191.655V216.595C90.4444 217.127 90.233 217.636 89.8574 218.012C89.4817 218.387 88.9723 218.599 88.4411 218.599H77.1721C74.8057 218.597 72.5369 217.655 70.8636 215.982C69.1902 214.309 68.249 212.04 68.2463 209.674Z" fill="white"/>
<path d="M71.1917 196.683C71.1922 196.164 71.3987 195.666 71.7658 195.299C72.1329 194.932 72.6306 194.725 73.1498 194.725H85.7688C86.2881 194.725 86.7862 194.931 87.1534 195.298C87.5206 195.665 87.7269 196.163 87.7269 196.683C87.7269 197.202 87.5206 197.7 87.1534 198.067C86.7862 198.435 86.2881 198.641 85.7688 198.641H73.1498C72.6306 198.64 72.1329 198.434 71.7658 198.067C71.3987 197.7 71.1922 197.202 71.1917 196.683Z" fill="#E6E6E6"/>
<path d="M71.1917 202.775C71.1922 202.255 71.3987 201.758 71.7658 201.391C72.1329 201.023 72.6306 200.817 73.1498 200.816H85.7688C86.2881 200.816 86.7862 201.023 87.1534 201.39C87.5206 201.757 87.7269 202.255 87.7269 202.775C87.7269 203.294 87.5206 203.792 87.1534 204.159C86.7862 204.526 86.2881 204.733 85.7688 204.733H73.1498C72.6306 204.732 72.1329 204.526 71.7658 204.159C71.3987 203.791 71.1922 203.294 71.1917 202.775Z" fill="#E6E6E6"/>
<path d="M71.1917 208.866C71.1922 208.347 71.3987 207.849 71.7658 207.482C72.1329 207.115 72.6306 206.909 73.1498 206.908H85.7688C86.2881 206.908 86.7862 207.114 87.1534 207.482C87.5206 207.849 87.7269 208.347 87.7269 208.866C87.7269 209.386 87.5206 209.884 87.1534 210.251C86.7862 210.618 86.2881 210.824 85.7688 210.824H73.1498C72.6306 210.824 72.1329 210.617 71.7658 210.25C71.3987 209.883 71.1922 209.385 71.1917 208.866Z" fill="#E6E6E6"/>
<path d="M67.1226 208.348C66.6467 208.357 66.1746 208.262 65.7396 208.068C65.3046 207.875 64.9174 207.588 64.605 207.229C64.2927 206.87 64.063 206.447 63.932 205.989C63.801 205.531 63.7719 205.051 63.8468 204.58L45.7755 194.686L51.0645 191.825L67.8111 201.883C68.5925 202.061 69.2814 202.52 69.7472 203.172C70.213 203.824 70.4235 204.625 70.3386 205.422C70.2537 206.218 69.8795 206.957 69.2868 207.496C68.694 208.036 67.924 208.339 67.1226 208.348Z" fill="#FFB8B8"/>
<path d="M56.6144 201.034L50.2062 199.896L47.9117 197.988L46.3685 197.202L41.0499 193.469L41.034 193.422L32.583 168.441C32.195 166.389 32.6058 164.267 33.7314 162.509C34.8571 160.75 36.6123 159.488 38.6378 158.982C39.7578 158.703 40.9242 158.665 42.0601 158.87C43.196 159.074 44.2757 159.517 45.2281 160.169C46.1805 160.821 46.984 161.667 47.5857 162.652C48.1875 163.637 48.5738 164.738 48.7193 165.883L51.439 187.293L55.9473 191.949L57.9199 192.331L58.3739 194.455L60.0956 197.118L56.6144 201.034Z" fill="#3F3D56"/>
</g>
<defs>
<clipPath id="clip0_76_742">
<rect width="262" height="303.256" fill="white"/>
</clipPath>
</defs>
</svg>
