<svg width="333" height="262" viewBox="0 0 333 262" fill="none" xmlns="http://www.w3.org/2000/svg">
<g clip-path="url(#clip0_76_506)">
<path d="M200.518 115.592H124.429C122.321 115.59 120.299 114.751 118.809 113.261C117.318 111.77 116.48 109.749 116.477 107.641V8.33531C116.48 6.22715 117.318 4.20603 118.809 2.71535C120.3 1.22467 122.321 0.386164 124.429 0.383789H200.518C202.626 0.386165 204.647 1.22467 206.138 2.71535C207.628 4.20603 208.467 6.22715 208.469 8.33531V107.641C208.467 109.749 207.628 111.77 206.138 113.261C204.647 114.751 202.626 115.59 200.518 115.592Z" fill="#F0F0F0"/>
<path d="M200.518 115.976H124.429C122.219 115.974 120.1 115.095 118.537 113.532C116.975 111.969 116.096 109.851 116.093 107.641V8.33555C116.096 6.1256 116.975 4.00689 118.537 2.44422C120.1 0.881547 122.219 0.00252779 124.429 0H200.518C202.728 0.00248916 204.846 0.881488 206.409 2.44416C207.972 4.00684 208.851 6.12557 208.853 8.33555V107.641C208.851 109.851 207.972 111.969 206.409 113.532C204.846 115.095 202.728 115.974 200.518 115.976ZM124.429 0.768056C122.422 0.770317 120.499 1.56833 119.08 2.98702C117.662 4.40571 116.864 6.32922 116.861 8.33555V107.641C116.864 109.647 117.662 111.57 119.08 112.989C120.499 114.408 122.422 115.206 124.429 115.208H200.518C202.524 115.206 204.448 114.408 205.866 112.989C207.285 111.571 208.083 109.647 208.085 107.641V8.33555C208.083 6.32919 207.285 4.40566 205.866 2.98697C204.447 1.56827 202.524 0.770281 200.518 0.768056H124.429Z" fill="#CD314D"/>
<path d="M324.129 115.592H248.04C245.932 115.59 243.911 114.751 242.42 113.261C240.93 111.77 240.091 109.749 240.089 107.641V8.33531C240.091 6.22715 240.93 4.20603 242.42 2.71535C243.911 1.22467 245.932 0.386164 248.04 0.383789H324.129C326.237 0.386164 328.259 1.22467 329.749 2.71535C331.24 4.20603 332.078 6.22715 332.081 8.33531V107.641C332.078 109.749 331.24 111.77 329.749 113.261C328.259 114.751 326.237 115.59 324.129 115.592Z" fill="#F0F0F0"/>
<path d="M161.127 127.883C168.722 127.883 174.879 121.726 174.879 114.13C174.879 106.535 168.722 100.378 161.127 100.378C153.532 100.378 147.375 106.535 147.375 114.13C147.375 121.726 153.532 127.883 161.127 127.883Z" fill="#CD314D"/>
<path d="M159.251 121.288C159.013 121.288 158.779 121.233 158.567 121.126C158.354 121.02 158.17 120.866 158.027 120.676L154.275 115.673C154.155 115.513 154.067 115.33 154.017 115.135C153.967 114.94 153.956 114.738 153.985 114.539C154.013 114.34 154.08 114.149 154.183 113.976C154.285 113.803 154.421 113.652 154.581 113.532C154.742 113.411 154.925 113.323 155.12 113.274C155.314 113.224 155.517 113.213 155.715 113.241C155.914 113.269 156.106 113.337 156.279 113.439C156.451 113.542 156.602 113.677 156.723 113.838L159.178 117.11L165.482 107.654C165.708 107.318 166.057 107.085 166.454 107.006C166.852 106.927 167.264 107.009 167.601 107.233C167.938 107.458 168.172 107.807 168.252 108.204C168.332 108.601 168.251 109.013 168.028 109.351L160.524 120.607C160.388 120.81 160.206 120.978 159.991 121.097C159.777 121.215 159.538 121.28 159.293 121.287C159.279 121.288 159.265 121.288 159.251 121.288Z" fill="white"/>
<path d="M149.195 168.7H3.26424C2.39882 168.699 1.56912 168.354 0.957175 167.742C0.345228 167.13 0.00099809 166.301 0 165.435V33.3297C0.000965631 32.4642 0.345186 31.6345 0.95714 31.0226C1.56909 30.4106 2.39881 30.0664 3.26424 30.0654H149.195C150.06 30.0664 150.89 30.4106 151.502 31.0226C152.114 31.6345 152.458 32.4642 152.459 33.3297V165.435C152.458 166.301 152.114 167.13 151.502 167.742C150.89 168.354 150.06 168.699 149.195 168.7Z" fill="#3F3D56"/>
<path d="M146.123 165.627H6.3365C5.47108 165.626 4.64139 165.282 4.02944 164.67C3.41749 164.058 3.07326 163.229 3.07227 162.363V36.4019C3.07323 35.5365 3.41745 34.7068 4.02941 34.0948C4.64136 33.4829 5.47107 33.1387 6.3365 33.1377H146.123C146.988 33.1387 147.818 33.4829 148.43 34.0948C149.042 34.7068 149.386 35.5365 149.387 36.4019V162.363C149.386 163.229 149.042 164.058 148.43 164.67C147.818 165.282 146.988 165.626 146.123 165.627Z" fill="white"/>
<path d="M13.4386 46.8224C29.8893 46.5364 46.3418 46.4953 62.7961 46.6992C79.2479 46.9042 95.6943 47.3554 112.135 48.0525C121.361 48.4438 130.583 48.9125 139.801 49.4587C140.541 49.5025 140.539 48.3503 139.801 48.3066C123.376 47.3347 106.94 46.6074 90.4915 46.1249C74.0453 45.6436 57.5945 45.4084 41.1389 45.4193C31.905 45.4255 22.6715 45.5091 13.4386 45.6704C12.6981 45.6832 12.6957 46.8354 13.4386 46.8225V46.8224Z" fill="#3F3D56"/>
<path d="M128.085 39.5986L135.278 39.0632C136.013 39.0085 136.019 37.856 135.278 37.9111L128.085 38.4465C127.35 38.5012 127.344 39.6537 128.085 39.5986Z" fill="#3F3D56"/>
<path d="M128.085 46.5116L135.278 45.9763C136.013 45.9216 136.019 44.769 135.278 44.8242L128.085 45.3596C127.35 45.4143 127.344 46.5668 128.085 46.5116Z" fill="#3F3D56"/>
<path d="M127.543 43.3541L137.771 44.2833C138.509 44.3503 138.504 43.1978 137.771 43.1312L127.543 42.202C126.805 42.135 126.81 43.2875 127.543 43.3541Z" fill="#3F3D56"/>
<path d="M17.6956 38.0499C17.1954 38.0468 16.7053 38.191 16.2865 38.4645C15.8676 38.7381 15.5386 39.1288 15.3403 39.5881C15.1185 40.0376 15.0501 40.5474 15.1454 41.0395C15.2407 41.5316 15.4946 41.9789 15.8682 42.3131C16.2194 42.6119 16.6407 42.8168 17.0926 42.9086C17.5445 43.0004 18.0123 42.9761 18.4523 42.838C18.9022 42.6809 19.2924 42.3881 19.5691 42.0001C19.8458 41.612 19.9954 41.1477 19.9973 40.6711C20.0174 40.1423 19.8742 39.6202 19.5871 39.1757C19.3 38.7312 18.8829 38.3859 18.3927 38.1868C18.2454 38.1468 18.0882 38.1666 17.9555 38.242C17.8227 38.3174 17.7252 38.4422 17.6841 38.5892C17.6477 38.7363 17.6692 38.8918 17.744 39.0236C17.8189 39.1554 17.9414 39.2536 18.0864 39.2978C18.1868 39.3365 17.9947 39.2484 18.0884 39.2995C18.127 39.3205 18.1662 39.3395 18.2041 39.3619C18.2363 39.3809 18.2671 39.4018 18.2984 39.4222C18.4059 39.4924 18.2459 39.3707 18.3146 39.4338C18.3742 39.4885 18.4333 39.5419 18.4874 39.6023C18.5079 39.6251 18.5882 39.6886 18.5258 39.6442C18.4781 39.6103 18.5074 39.6182 18.5258 39.6455C18.5398 39.6662 18.5545 39.6863 18.5683 39.7071C18.6132 39.7751 18.654 39.8456 18.6906 39.9184C18.699 39.9353 18.7068 39.9525 18.7154 39.9693C18.7315 40.0007 18.7549 40.009 18.717 39.9696C18.6807 39.932 18.7038 39.9346 18.7168 39.9708C18.7253 39.9945 18.7346 40.018 18.7429 40.0419C18.7699 40.1196 18.7926 40.1987 18.8108 40.279C18.8192 40.316 18.826 40.3533 18.8333 40.3906C18.859 40.5229 18.8295 40.3084 18.8358 40.4067C18.8409 40.4887 18.847 40.5699 18.8456 40.6522C18.8449 40.6899 18.8433 40.7276 18.8407 40.7652C18.8393 40.7839 18.8372 40.8026 18.836 40.8214C18.83 40.9118 18.8298 40.7884 18.8425 40.7799C18.8162 40.8567 18.7987 40.9362 18.7904 41.0169C18.7801 41.0527 18.7679 41.0877 18.7564 41.1231C18.7163 41.2467 18.794 41.0558 18.7513 41.1402C18.7161 41.2128 18.6768 41.2833 18.6336 41.3513C18.6148 41.3798 18.5441 41.4442 18.6019 41.3994C18.6647 41.3508 18.569 41.4345 18.5486 41.4561C18.5223 41.4837 18.4951 41.5105 18.4669 41.5362C18.4488 41.5538 18.4297 41.5704 18.4098 41.5859C18.4061 41.584 18.506 41.5191 18.4522 41.5535C18.3837 41.5971 18.3189 41.6438 18.2468 41.6818C18.2384 41.6863 18.1461 41.729 18.1465 41.7305C18.1425 41.7149 18.2651 41.6874 18.181 41.7145C18.1633 41.7202 18.146 41.7271 18.1284 41.7331C18.0518 41.7588 17.9736 41.7797 17.8944 41.7954C17.8762 41.799 17.857 41.8008 17.8391 41.8055C17.7796 41.8209 17.8961 41.7964 17.8996 41.7985C17.8555 41.7966 17.8115 41.8005 17.7685 41.8101C17.6867 41.8147 17.6048 41.8147 17.5231 41.81C17.5042 41.809 17.4853 41.8071 17.4664 41.806C17.4225 41.8034 17.3903 41.7718 17.4487 41.8061C17.4938 41.8326 17.49 41.8133 17.4501 41.8059C17.4314 41.8025 17.4127 41.7996 17.394 41.796C17.3131 41.7809 17.2331 41.7613 17.1544 41.7374C17.112 41.7244 17.0705 41.7094 17.0287 41.6948C17.0105 41.6895 16.9927 41.6827 16.9757 41.6744C16.9754 41.6697 17.0834 41.726 17.0264 41.6953C16.9544 41.6565 16.88 41.624 16.8098 41.5816C16.7723 41.559 16.7363 41.5344 16.6998 41.5102C16.6838 41.5005 16.6685 41.4896 16.6542 41.4776C16.6554 41.4727 16.7435 41.5543 16.6973 41.5102C16.6388 41.4545 16.5762 41.4046 16.5208 41.3453C16.5082 41.3317 16.4962 41.3175 16.4835 41.3039L16.4713 41.2899C16.4401 41.2517 16.4395 41.2519 16.4696 41.2904C16.5001 41.2994 16.4987 41.3329 16.4698 41.2894C16.4594 41.2739 16.4485 41.2589 16.4382 41.2433C16.3914 41.1767 16.3515 41.1054 16.3191 41.0307C16.3219 41.0285 16.369 41.1693 16.333 41.0631C16.3262 41.043 16.3185 41.0232 16.3119 41.0031C16.2986 40.9632 16.287 40.9229 16.2769 40.8821C16.2669 40.8416 16.2618 40.8 16.2518 40.7597C16.2348 40.6919 16.2617 40.8132 16.2586 40.8102C16.249 40.8007 16.2531 40.7419 16.2524 40.7278C16.2478 40.6374 16.2581 40.5497 16.2597 40.4598C16.2609 40.3902 16.2539 40.5141 16.2525 40.5104C16.2528 40.4896 16.2565 40.4689 16.2634 40.4493C16.2738 40.4019 16.2835 40.3545 16.2963 40.3077C16.3109 40.254 16.3277 40.201 16.3468 40.1487C16.3539 40.1291 16.3626 40.1098 16.3692 40.0901C16.3934 40.0177 16.3212 40.1774 16.361 40.1122C16.4158 40.0225 16.4566 39.9253 16.5148 39.8367C16.5286 39.8157 16.6124 39.6987 16.568 39.7578C16.5236 39.8166 16.6135 39.7051 16.6305 39.6861C16.7012 39.6074 16.7843 39.5429 16.8574 39.4675C16.9007 39.4229 16.8272 39.4895 16.8228 39.4926C16.8455 39.4764 16.8677 39.4596 16.8906 39.4438C16.9306 39.4162 16.9716 39.3902 17.0135 39.3656C17.0608 39.3379 17.1142 39.3173 17.16 39.288C17.2142 39.2533 17.1187 39.3032 17.117 39.3042C17.1417 39.2919 17.1675 39.2821 17.1941 39.2748C17.2387 39.259 17.4327 39.1753 17.4734 39.2014C17.4716 39.2002 17.3261 39.2131 17.4437 39.2056C17.4715 39.2038 17.4992 39.2011 17.527 39.1999C17.5833 39.1976 17.6394 39.199 17.6956 39.2019C17.8481 39.2009 17.994 39.1399 18.1018 39.0321C18.2096 38.9243 18.2707 38.7784 18.2717 38.6259C18.2684 38.4741 18.2067 38.3295 18.0993 38.2222C17.992 38.1148 17.8474 38.0531 17.6956 38.0499Z" fill="#3F3D56"/>
<path d="M25.7603 38.0499C25.2601 38.0468 24.77 38.191 24.3512 38.4645C23.9323 38.7381 23.6033 39.1288 23.405 39.5881C23.1832 40.0376 23.1148 40.5474 23.2101 41.0395C23.3054 41.5316 23.5593 41.9789 23.9329 42.3131C24.2841 42.6119 24.7054 42.8168 25.1573 42.9086C25.6092 43.0004 26.077 42.9761 26.5169 42.838C26.9669 42.6809 27.3571 42.3881 27.6338 42.0001C27.9105 41.612 28.0601 41.1477 28.062 40.6711C28.0821 40.1423 27.9389 39.6202 27.6518 39.1757C27.3647 38.7312 26.9476 38.3859 26.4574 38.1868C26.3101 38.1468 26.1529 38.1666 26.0202 38.242C25.8874 38.3174 25.7899 38.4422 25.7488 38.5892C25.7124 38.7363 25.7339 38.8918 25.8087 39.0236C25.8836 39.1554 26.0061 39.2536 26.1511 39.2978C26.2515 39.3365 26.0594 39.2484 26.1531 39.2995C26.1917 39.3205 26.2309 39.3395 26.2688 39.3619C26.301 39.3809 26.3318 39.4018 26.3631 39.4222C26.4706 39.4924 26.3106 39.3707 26.3793 39.4338C26.4389 39.4885 26.498 39.5419 26.5521 39.6023C26.5726 39.6251 26.6529 39.6886 26.5905 39.6442C26.5428 39.6103 26.5721 39.6182 26.5905 39.6455C26.6045 39.6662 26.6192 39.6863 26.633 39.7071C26.6779 39.7751 26.7187 39.8456 26.7552 39.9184C26.7637 39.9353 26.7715 39.9525 26.7801 39.9693C26.7962 40.0007 26.8196 40.009 26.7817 39.9696C26.7454 39.932 26.7685 39.9346 26.7815 39.9708C26.79 39.9945 26.7993 40.018 26.8076 40.0419C26.8346 40.1196 26.8573 40.1987 26.8755 40.279C26.8839 40.316 26.8907 40.3533 26.898 40.3906C26.9237 40.5229 26.8942 40.3084 26.9005 40.4067C26.9056 40.4887 26.9117 40.5699 26.9103 40.6522C26.9096 40.6899 26.908 40.7276 26.9054 40.7652C26.904 40.7839 26.9019 40.8026 26.9007 40.8214C26.8947 40.9118 26.8945 40.7884 26.9072 40.7799C26.8809 40.8567 26.8634 40.9362 26.8551 41.0169C26.8448 41.0527 26.8326 41.0877 26.8211 41.1231C26.781 41.2467 26.8587 41.0558 26.816 41.1402C26.7808 41.2128 26.7415 41.2833 26.6983 41.3513C26.6795 41.3798 26.6088 41.4442 26.6666 41.3994C26.7294 41.3508 26.6337 41.4345 26.6133 41.4561C26.587 41.4837 26.5598 41.5105 26.5316 41.5362C26.5135 41.5538 26.4944 41.5704 26.4745 41.5859C26.4708 41.584 26.5707 41.5191 26.5168 41.5535C26.4484 41.5971 26.3836 41.6438 26.3115 41.6818C26.3031 41.6863 26.2108 41.729 26.2112 41.7305C26.2072 41.7149 26.3298 41.6874 26.2457 41.7145C26.228 41.7202 26.2107 41.7271 26.1931 41.7331C26.1165 41.7588 26.0383 41.7797 25.9591 41.7954C25.9409 41.799 25.9217 41.8008 25.9038 41.8055C25.8443 41.8209 25.9608 41.7964 25.9642 41.7985C25.9202 41.7966 25.8762 41.8005 25.8332 41.8101C25.7514 41.8147 25.6695 41.8147 25.5878 41.81C25.5689 41.809 25.55 41.8071 25.5311 41.806C25.4872 41.8034 25.455 41.7718 25.5134 41.8061C25.5585 41.8326 25.5547 41.8133 25.5148 41.8059C25.4961 41.8025 25.4773 41.7996 25.4587 41.796C25.3778 41.7809 25.2978 41.7613 25.219 41.7374C25.1767 41.7244 25.1352 41.7094 25.0934 41.6948C25.0752 41.6895 25.0574 41.6827 25.0404 41.6744C25.0401 41.6697 25.1481 41.726 25.0911 41.6953C25.0191 41.6565 24.9447 41.624 24.8745 41.5816C24.837 41.559 24.801 41.5344 24.7645 41.5102C24.7485 41.5005 24.7332 41.4896 24.7189 41.4776C24.7201 41.4727 24.8082 41.5543 24.762 41.5102C24.7035 41.4545 24.6409 41.4046 24.5855 41.3453C24.5729 41.3317 24.5609 41.3175 24.5482 41.3039L24.536 41.2899C24.5048 41.2517 24.5042 41.2519 24.5343 41.2904C24.5648 41.2994 24.5634 41.3329 24.5344 41.2894C24.5241 41.2739 24.5132 41.2589 24.5029 41.2433C24.4561 41.1767 24.4162 41.1054 24.3838 41.0307C24.3866 41.0285 24.4337 41.1693 24.3977 41.0631C24.3909 41.043 24.3832 41.0232 24.3766 41.0031C24.3633 40.9632 24.3517 40.9229 24.3416 40.8821C24.3316 40.8416 24.3265 40.8 24.3165 40.7597C24.2995 40.6919 24.3264 40.8132 24.3233 40.8102C24.3137 40.8007 24.3178 40.7419 24.3171 40.7278C24.3125 40.6374 24.3228 40.5497 24.3244 40.4598C24.3256 40.3902 24.3186 40.5141 24.3172 40.5104C24.3175 40.4896 24.3212 40.4689 24.3281 40.4493C24.3385 40.4019 24.3482 40.3545 24.361 40.3077C24.3756 40.254 24.3924 40.201 24.4115 40.1487C24.4186 40.1291 24.4273 40.1098 24.4339 40.0901C24.4581 40.0177 24.3859 40.1774 24.4257 40.1122C24.4805 40.0225 24.5213 39.9253 24.5795 39.8367C24.5933 39.8157 24.6771 39.6987 24.6326 39.7578C24.5883 39.8166 24.6782 39.7051 24.6952 39.6861C24.7659 39.6074 24.8489 39.5429 24.9221 39.4675C24.9654 39.4229 24.8919 39.4895 24.8875 39.4926C24.9102 39.4764 24.9324 39.4596 24.9553 39.4438C24.9953 39.4162 25.0363 39.3902 25.0782 39.3656C25.1255 39.3379 25.1789 39.3173 25.2247 39.288C25.2789 39.2533 25.1834 39.3032 25.1817 39.3042C25.2064 39.2919 25.2322 39.2821 25.2588 39.2748C25.3034 39.259 25.4974 39.1753 25.5381 39.2014C25.5363 39.2002 25.3908 39.2131 25.5084 39.2056C25.5362 39.2038 25.5639 39.2011 25.5917 39.1999C25.648 39.1976 25.7041 39.199 25.7603 39.2019C25.9128 39.2009 26.0587 39.1399 26.1665 39.0321C26.2743 38.9243 26.3354 38.7784 26.3364 38.6259C26.3331 38.4741 26.2714 38.3295 26.164 38.2222C26.0567 38.1148 25.9121 38.0531 25.7603 38.0499Z" fill="#3F3D56"/>
<path d="M33.8248 38.0499C33.3245 38.0468 32.8344 38.191 32.4156 38.4645C31.9968 38.7381 31.6677 39.1288 31.4695 39.5881C31.2477 40.0376 31.1792 40.5474 31.2745 41.0395C31.3699 41.5316 31.6238 41.9789 31.9974 42.3131C32.3486 42.6119 32.7698 42.8168 33.2217 42.9086C33.6736 43.0004 34.1414 42.9761 34.5814 42.838C35.0314 42.6809 35.4215 42.3881 35.6982 42.0001C35.9749 41.612 36.1246 41.1477 36.1265 40.6711C36.1466 40.1423 36.0033 39.6202 35.7162 39.1757C35.4291 38.7312 35.0121 38.3859 34.5218 38.1868C34.3745 38.1468 34.2174 38.1666 34.0846 38.242C33.9519 38.3174 33.8543 38.4422 33.8132 38.5892C33.7769 38.7363 33.7983 38.8918 33.8732 39.0236C33.948 39.1554 34.0705 39.2536 34.2155 39.2978C34.3159 39.3365 34.1238 39.2484 34.2176 39.2995C34.2561 39.3205 34.2954 39.3395 34.3332 39.3619C34.3654 39.3809 34.3962 39.4018 34.4275 39.4222C34.535 39.4924 34.375 39.3707 34.4437 39.4338C34.5033 39.4885 34.5624 39.5419 34.6166 39.6023C34.6371 39.6251 34.7173 39.6886 34.6549 39.6442C34.6072 39.6103 34.6365 39.6182 34.6549 39.6455C34.6689 39.6662 34.6836 39.6863 34.6974 39.7071C34.7423 39.7751 34.7832 39.8456 34.8197 39.9184C34.8282 39.9353 34.8359 39.9525 34.8445 39.9693C34.8606 40.0007 34.884 40.009 34.8461 39.9696C34.8099 39.932 34.8329 39.9346 34.8459 39.9708C34.8544 39.9945 34.8637 40.018 34.872 40.0419C34.899 40.1196 34.9217 40.1987 34.9399 40.279C34.9484 40.316 34.9552 40.3533 34.9624 40.3906C34.9881 40.5229 34.9587 40.3084 34.9649 40.4067C34.9701 40.4887 34.9761 40.5699 34.9747 40.6522C34.974 40.6899 34.9724 40.7276 34.9698 40.7652C34.9685 40.7839 34.9664 40.8026 34.9651 40.8214C34.9592 40.9118 34.959 40.7884 34.9716 40.7799C34.9453 40.8567 34.9278 40.9362 34.9196 41.0169C34.9092 41.0527 34.897 41.0877 34.8855 41.1231C34.8454 41.2467 34.9231 41.0558 34.8804 41.1402C34.8453 41.2128 34.806 41.2833 34.7627 41.3513C34.744 41.3798 34.6732 41.4442 34.7311 41.3994C34.7939 41.3508 34.6981 41.4345 34.6777 41.4561C34.6515 41.4837 34.6242 41.5105 34.596 41.5362C34.578 41.5538 34.5589 41.5704 34.5389 41.5859C34.5352 41.584 34.6351 41.5191 34.5813 41.5535C34.5128 41.5971 34.448 41.6438 34.3759 41.6818C34.3675 41.6863 34.2753 41.729 34.2757 41.7305C34.2717 41.7149 34.3942 41.6874 34.3101 41.7145C34.2924 41.7202 34.2751 41.7271 34.2575 41.7331C34.1809 41.7588 34.1028 41.7797 34.0235 41.7954C34.0054 41.799 33.9862 41.8008 33.9683 41.8055C33.9087 41.8209 34.0252 41.7964 34.0287 41.7985C33.9847 41.7966 33.9406 41.8005 33.8976 41.8101C33.8159 41.8147 33.7339 41.8147 33.6522 41.81C33.6333 41.809 33.6144 41.8071 33.5955 41.806C33.5516 41.8034 33.5194 41.7718 33.5778 41.8061C33.6229 41.8326 33.6191 41.8133 33.5792 41.8059C33.5605 41.8025 33.5418 41.7996 33.5231 41.796C33.4422 41.7809 33.3622 41.7613 33.2835 41.7374C33.2411 41.7244 33.1996 41.7094 33.1578 41.6948C33.1396 41.6895 33.1219 41.6827 33.1048 41.6744C33.1046 41.6697 33.2125 41.726 33.1555 41.6953C33.0836 41.6565 33.0092 41.624 32.9389 41.5816C32.9014 41.559 32.8654 41.5344 32.8289 41.5102C32.8129 41.5005 32.7977 41.4896 32.7833 41.4776C32.7845 41.4727 32.8727 41.5543 32.8264 41.5102C32.7679 41.4545 32.7054 41.4046 32.65 41.3453C32.6373 41.3317 32.6253 41.3175 32.6127 41.3039L32.6004 41.2899C32.5692 41.2517 32.5686 41.2519 32.5987 41.2904C32.6292 41.2994 32.6279 41.3329 32.5989 41.2894C32.5886 41.2739 32.5776 41.2589 32.5673 41.2433C32.5205 41.1767 32.4806 41.1054 32.4482 41.0307C32.451 41.0285 32.4981 41.1693 32.4621 41.0631C32.4553 41.043 32.4477 41.0232 32.441 41.0031C32.4278 40.9632 32.4161 40.9229 32.406 40.8821C32.3961 40.8416 32.391 40.8 32.3809 40.7597C32.364 40.6919 32.3908 40.8132 32.3878 40.8102C32.3782 40.8007 32.3822 40.7419 32.3815 40.7278C32.3769 40.6374 32.3872 40.5497 32.3888 40.4598C32.3901 40.3902 32.3831 40.5141 32.3816 40.5104C32.382 40.4896 32.3857 40.4689 32.3925 40.4493C32.403 40.4019 32.4127 40.3545 32.4254 40.3077C32.4401 40.254 32.4569 40.201 32.4759 40.1487C32.483 40.1291 32.4917 40.1098 32.4983 40.0901C32.5226 40.0177 32.4503 40.1774 32.4902 40.1122C32.545 40.0225 32.5858 39.9253 32.644 39.8367C32.6578 39.8157 32.7416 39.6987 32.6971 39.7578C32.6528 39.8166 32.7426 39.7051 32.7596 39.6861C32.8303 39.6074 32.9134 39.5429 32.9866 39.4675C33.0299 39.4229 32.9563 39.4895 32.952 39.4926C32.9747 39.4764 32.9968 39.4596 33.0198 39.4438C33.0598 39.4162 33.1007 39.3902 33.1427 39.3656C33.19 39.3379 33.2434 39.3173 33.2892 39.288C33.3433 39.2533 33.2478 39.3032 33.2461 39.3042C33.2708 39.2919 33.2967 39.2821 33.3233 39.2748C33.3679 39.259 33.5619 39.1753 33.6026 39.2014C33.6007 39.2002 33.4553 39.2131 33.5729 39.2056C33.6006 39.2038 33.6283 39.2011 33.6561 39.1999C33.7124 39.1976 33.7685 39.199 33.8248 39.2019C33.9772 39.2009 34.1232 39.1399 34.231 39.0321C34.3388 38.9243 34.3998 38.7784 34.4008 38.6259C34.3975 38.4741 34.3358 38.3295 34.2285 38.2222C34.1212 38.1148 33.9765 38.0531 33.8248 38.0499Z" fill="#3F3D56"/>
<path d="M16.9944 68.304L17.5081 87.968L18.0218 107.632C18.0867 110.113 17.7362 113.498 20.2529 114.951C21.3028 115.557 22.5581 115.69 23.7479 115.723C25.3274 115.767 26.912 115.735 28.4921 115.736L48.1735 115.757C50.7595 115.76 53.5997 115.685 55.4524 113.602C56.9989 111.863 57.4372 109.453 57.5922 107.204C57.7969 104.236 57.6987 101.231 57.7253 98.2569L57.8136 88.3745L57.902 78.492C57.9288 75.4897 58.0707 72.4631 57.9391 69.4628C57.8386 67.1735 57.4516 64.729 55.9168 62.93C54.1684 60.8806 51.4038 60.604 48.8823 60.5233C42.3611 60.3145 35.8387 60.1383 29.3169 59.9459C27.8165 59.9017 26.3118 59.8211 24.8106 59.841C23.4755 59.8151 22.1459 60.0188 20.8798 60.4431C18.7712 61.2325 17.124 63.1262 17.1973 65.4749C17.2021 65.9668 17.3107 66.4522 17.516 66.8993C17.7213 67.3464 18.0187 67.745 18.3887 68.0692C18.9515 68.5453 19.7704 67.7343 19.2034 67.2546C17.6664 65.9543 18.4107 63.518 19.7543 62.3641C21.701 60.6921 24.7528 60.9634 27.1266 61.0334L45.6015 61.5783C47.0342 61.6205 48.471 61.6348 49.9021 61.719C51.1795 61.7942 52.5139 61.9602 53.6573 62.5754C55.6345 63.6391 56.4061 65.8218 56.6659 67.9328C56.9928 70.5889 56.796 73.3295 56.7722 75.9974L56.6881 85.4001L56.5217 104.014C56.5014 106.278 56.5364 108.614 55.7747 110.779C55.4473 111.783 54.8477 112.677 54.0428 113.361C53.0319 114.094 51.824 114.508 50.5756 114.546C49.1733 114.659 47.7549 114.605 46.3494 114.603L41.549 114.598L32.3324 114.588L27.532 114.583C26.1293 114.582 24.7165 114.631 23.3155 114.554C22.2403 114.495 21.0405 114.309 20.2483 113.509C19.3609 112.613 19.2785 111.229 19.2378 110.041C18.8136 97.6681 18.5901 85.2846 18.2668 72.9083L18.1465 68.304C18.1271 67.5641 16.975 67.5612 16.9944 68.304L16.9944 68.304Z" fill="#3F3D56"/>
<path d="M89.9597 68.304L90.4735 87.968L90.9872 107.632C91.052 110.113 90.7015 113.498 93.2182 114.951C94.2681 115.557 95.5234 115.69 96.7132 115.723C98.2927 115.767 99.8773 115.735 101.457 115.736L121.139 115.757C123.725 115.76 126.565 115.685 128.418 113.602C129.964 111.863 130.402 109.453 130.558 107.204C130.762 104.236 130.664 101.231 130.691 98.2569L130.779 88.3745L130.867 78.492C130.894 75.4897 131.036 72.4631 130.904 69.4628C130.804 67.1735 130.417 64.729 128.882 62.93C127.134 60.8806 124.369 60.604 121.848 60.5233C115.326 60.3145 108.804 60.1383 102.282 59.9459C100.782 59.9017 99.2771 59.8211 97.7759 59.841C96.4408 59.8151 95.1112 60.0188 93.8451 60.4431C91.7365 61.2325 90.0893 63.1262 90.1627 65.4749C90.1674 65.9668 90.276 66.4522 90.4813 66.8993C90.6866 67.3464 90.984 67.745 91.3541 68.0692C91.9168 68.5453 92.7357 67.7343 92.1687 67.2546C90.6317 65.9543 91.3761 63.518 92.7196 62.3641C94.6663 60.6921 97.7181 60.9634 100.092 61.0334L118.567 61.5783C120 61.6205 121.436 61.6348 122.867 61.719C124.145 61.7942 125.479 61.9602 126.623 62.5754C128.6 63.6391 129.371 65.8218 129.631 67.9328C129.958 70.5889 129.761 73.3295 129.737 75.9974L129.653 85.4001L129.487 104.014C129.467 106.278 129.502 108.614 128.74 110.779C128.413 111.783 127.813 112.677 127.008 113.361C125.997 114.094 124.789 114.508 123.541 114.546C122.139 114.659 120.72 114.605 119.315 114.603L114.514 114.598L105.298 114.588L100.497 114.583C99.0946 114.582 97.6818 114.631 96.2809 114.554C95.2056 114.495 94.0058 114.309 93.2136 113.509C92.3262 112.613 92.2439 111.229 92.2031 110.041C91.7789 97.6681 91.5554 85.2846 91.2321 72.9083L91.1118 68.304C91.0925 67.5641 89.9403 67.5612 89.9597 68.304L89.9597 68.304Z" fill="#3F3D56"/>
<path d="M36.8806 120.014C36.4778 119.627 35.9822 119.349 35.4412 119.208C34.9002 119.068 34.3322 119.069 33.7916 119.211C33.2545 119.358 32.7567 119.623 32.3341 119.985C31.9115 120.348 31.5746 120.8 31.3477 121.309C30.2593 123.627 31.2344 126.329 32.7384 128.222C34.1359 129.981 36.4064 131.14 38.6182 130.217C39.6259 129.785 40.4725 129.047 41.0388 128.109C41.605 127.17 41.8622 126.077 41.7741 124.984C41.4953 122.41 39.4036 120.326 36.9474 119.697C36.2288 119.513 35.9222 120.624 36.6412 120.808C37.495 121.015 38.2853 121.427 38.9435 122.009C39.6017 122.591 40.1078 123.325 40.4177 124.147C40.6896 124.951 40.7014 125.82 40.4513 126.632C40.2012 127.443 39.702 128.155 39.0244 128.666C35.5914 131.302 31.6647 126.262 32.0496 122.964C32.0907 122.478 32.2432 122.007 32.4952 121.589C32.7473 121.17 33.0921 120.816 33.5031 120.552C33.9033 120.317 34.3687 120.216 34.8303 120.266C35.292 120.316 35.7253 120.513 36.0659 120.829C36.1752 120.931 36.3198 120.987 36.4692 120.984C36.6187 120.982 36.7613 120.921 36.867 120.815C36.9727 120.71 37.0332 120.567 37.0357 120.418C37.0383 120.268 36.9826 120.124 36.8806 120.014L36.8806 120.014Z" fill="#3F3D56"/>
<path d="M107.264 80.0311C105.919 79.5687 104.359 79.1096 102.968 79.6516C101.655 80.163 100.932 81.4149 100.79 82.7737C100.632 84.289 101.276 85.7342 101.959 87.0461C102.78 88.6242 103.628 90.1893 104.462 91.7603L107.35 97.1943C107.416 97.3006 107.514 97.3828 107.63 97.4287C107.746 97.4746 107.874 97.4817 107.995 97.4491C108.116 97.4164 108.222 97.3457 108.3 97.2474C108.377 97.1491 108.42 97.0285 108.423 96.9036C108.26 95.0815 108.549 93.2474 109.265 91.5639C110.004 89.8624 111.21 88.4253 112.068 86.7892C112.858 85.283 113.384 83.555 112.966 81.8574C112.627 80.4844 111.629 79.1483 110.19 78.8287C109.463 78.6447 108.694 78.7261 108.021 79.0583C107.349 79.3905 106.817 79.9518 106.521 80.6411C106.25 81.3311 107.363 81.6304 107.632 80.9473C108.015 79.9745 109.357 79.6762 110.251 80.0485C111.416 80.5336 111.968 81.9258 111.967 83.1091C111.965 84.7268 111.136 86.2051 110.295 87.5339C109.446 88.8759 108.553 90.1739 107.989 91.6697C107.366 93.3399 107.121 95.1274 107.271 96.9036L108.345 96.6128C106.47 93.0844 104.492 89.5915 102.722 86.0093C102.041 84.6317 101.429 82.7738 102.472 81.3996C103.542 79.9909 105.584 80.6697 106.958 81.142C107.66 81.3837 107.962 80.2712 107.264 80.0311L107.264 80.0311Z" fill="#3F3D56"/>
<path d="M33.9385 123.233L35.635 126.523C35.6938 126.619 35.7789 126.695 35.8802 126.744C35.9816 126.792 36.0947 126.81 36.2059 126.795C36.3172 126.781 36.4219 126.734 36.5074 126.662C36.5929 126.589 36.6556 126.493 36.6878 126.386C37.1298 124.108 38.1886 121.995 39.7488 120.278C40.248 119.731 39.4355 118.914 38.9342 119.463C37.2319 121.321 36.0708 123.609 35.5769 126.079L36.6297 125.942L34.9333 122.651C34.5935 121.992 33.599 122.574 33.9385 123.233Z" fill="#3F3D56"/>
<path d="M53.181 108.043L39.7772 119.882C39.7016 119.949 39.6033 119.984 39.5026 119.981C39.4018 119.977 39.3063 119.935 39.2356 119.863C39.165 119.791 39.1246 119.695 39.1229 119.594C39.1211 119.493 39.1581 119.396 39.2262 119.321L51.7151 105.686L53.181 108.043Z" fill="#3F3D56"/>
<path d="M71.0503 252.122H76.3184L78.8257 231.802H71.0503V252.122Z" fill="#FFB6B6"/>
<path d="M68.2695 261.25H72.0476L72.722 257.683L74.4491 261.25H84.4695C84.9498 261.25 85.4176 261.097 85.8045 260.812C86.1914 260.528 86.4772 260.127 86.6201 259.668C86.763 259.21 86.7557 258.717 86.599 258.263C86.4424 257.809 86.1447 257.417 85.7494 257.144L77.7475 251.618V248.012L69.3308 248.514L68.2695 261.25Z" fill="#2F2E41"/>
<path d="M116.176 252.122H121.444L123.951 231.802H116.176V252.122Z" fill="#FFB6B6"/>
<path d="M113.395 261.25H117.173L117.848 257.683L119.575 261.25H129.595C130.075 261.25 130.543 261.097 130.93 260.812C131.317 260.528 131.603 260.127 131.746 259.668C131.889 259.21 131.881 258.717 131.725 258.263C131.568 257.809 131.27 257.417 130.875 257.144L122.873 251.618V248.012L114.456 248.514L113.395 261.25Z" fill="#2F2E41"/>
<path d="M100.949 144.412L74.2302 141.443C74.2302 141.443 62.3551 156.881 66.8083 170.241V185.117L70.0739 243.273L78.2381 243.718L80.6131 217.296L82.8397 206.757L84.7152 166.603L94.2695 178.108L95.1602 182.561L98.129 184.639L103.621 192.186L114.903 238.523L124.845 238.671C124.845 238.671 119.504 190.577 118.91 190.577C118.317 190.577 103.473 158.217 103.473 158.217V156.505L102.879 153.17C102.879 153.17 104.363 151.983 103.77 151.389C103.176 150.795 102.582 149.014 102.582 149.014L100.949 144.412Z" fill="#2F2E41"/>
<path d="M91.3008 102.998L96.6446 108.936L104.067 111.608L99.9103 135.952L101.289 142.952L103.324 150.647C95.481 154.986 86.1642 148.994 77.6049 146.333L69.1833 150.053L69.6287 139.811L69.857 114.005C69.8658 113.014 70.0782 112.035 70.481 111.129C70.8839 110.224 71.4685 109.411 72.1988 108.74C72.929 108.07 73.7892 107.557 74.726 107.233C75.6628 106.909 76.6561 106.781 77.6444 106.857L83.2851 102.701L91.3008 102.998Z" fill="#CD314D"/>
<path d="M42.8239 113.887C42.8661 114.328 43.0043 114.754 43.2289 115.135C43.4534 115.516 43.7589 115.844 44.1237 116.094C44.4885 116.345 44.9038 116.512 45.3403 116.585C45.7768 116.657 46.2239 116.633 46.6502 116.514L52.7768 125.356L54.8597 120.169L48.7225 112.568C48.4753 111.865 47.9789 111.277 47.3273 110.916C46.6758 110.555 45.9143 110.445 45.1872 110.608C44.4602 110.77 43.818 111.194 43.3824 111.798C42.9468 112.403 42.7481 113.146 42.8239 113.887Z" fill="#FFB8B8"/>
<path d="M74.9021 106.984C74.9021 106.984 66.9277 106.631 67.8207 122.478L64.4283 129.44L57.605 123.072L57.5742 121.045L51.8039 114.595L47.1721 119.715L50.2552 124.429L50.8495 127.062L52.7273 128.209L57.6266 135.699L59.893 137.93C59.893 137.93 62.768 140.795 66.0198 140.363C66.8873 140.251 67.7318 140.002 68.5223 139.627C70.0692 138.891 71.5974 137.571 72.8824 135.336C75.5753 130.72 77.9895 125.947 80.1121 121.043L74.9021 106.984Z" fill="#CD314D"/>
<path d="M109.812 89.0922C109.69 89.5176 109.663 89.9646 109.733 90.4016C109.802 90.8386 109.967 91.255 110.215 91.6215C110.463 91.988 110.788 92.2956 111.168 92.5228C111.548 92.7499 111.973 92.891 112.413 92.9362L114.884 103.405L118.719 99.3381L115.784 90.0201C115.811 89.2755 115.564 88.547 115.09 87.9725C114.615 87.3981 113.946 87.0176 113.21 86.9033C112.474 86.7889 111.721 86.9486 111.095 87.352C110.469 87.7554 110.012 88.3746 109.812 89.0922V89.0922Z" fill="#FFB8B8"/>
<path d="M92.8407 110.196C92.8407 110.196 97.0572 103.418 109.625 113.114L117.285 114.251L115.89 105.023L114.235 103.851L112.177 95.4456L119.019 94.5195L121.164 99.7275L123 101.706L122.884 103.903L126.293 112.179L126.852 115.31C126.852 115.31 127.59 119.301 125.396 121.739C124.812 122.391 124.13 122.947 123.374 123.387C121.892 124.247 119.939 124.761 117.369 124.558C112.039 124.17 106.738 123.463 101.492 122.441L92.8407 110.196Z" fill="#CD314D"/>
<path d="M92.2455 100.522C97.2289 97.7981 99.0604 91.5498 96.3362 86.5664C93.6121 81.583 87.3639 79.7515 82.3804 82.4757C77.397 85.1998 75.5655 91.4481 78.2897 96.4315C81.0139 101.415 87.2621 103.246 92.2455 100.522Z" fill="#FFB6B6"/>
<path d="M100.843 87.9508C100.813 87.9623 100.786 87.9738 100.755 87.9853C100.696 88.0111 100.636 88.0329 100.575 88.0506C100.182 88.1936 99.773 88.2865 99.3572 88.3271C99.1799 88.3458 99.0017 88.3548 98.8234 88.354C98.5947 88.3542 98.3663 88.3388 98.1398 88.3079C97.8878 88.2764 97.6387 88.225 97.3948 88.1543C97.279 88.123 97.165 88.0858 97.053 88.0429C96.2903 87.7698 95.6013 87.3235 95.0403 86.7392C94.4792 86.1548 94.0613 85.4482 93.8195 84.675V84.6712C93.7937 84.5956 93.7719 84.5187 93.7542 84.4408C93.6411 84.0082 93.5843 83.5629 93.5852 83.1159V83.1082C93.5851 82.018 93.9277 80.9554 94.5645 80.0705C94.9485 79.529 95.3908 79.4395 95.1444 78.8186C94.3584 76.8379 97.5986 75.2287 99.5069 76.1035C99.5759 76.0971 99.6451 76.0946 99.7143 76.0958C101.001 76.0958 101.473 77.9968 102.237 79.0682L102.215 79.0754C102.021 79.1429 101.852 79.2695 101.733 79.4374C101.614 79.6053 101.551 79.8062 101.552 80.012C101.553 80.2178 101.618 80.4181 101.738 80.585C101.859 80.752 102.028 80.8771 102.223 80.943C102.733 81.1106 103.249 81.2589 103.77 81.3878C105.484 83.4224 103.498 89.3571 100.843 87.9508Z" fill="#2F2E41"/>
<path d="M99.8832 93.3925C99.311 95.5545 98.2587 97.6629 96.5191 99.0646C94.7756 100.466 86.5843 103.777 85.9007 100.923C86.3577 102.916 86.0773 103.677 85.3323 104.387C85.2056 104.214 85.0712 104.049 84.9329 103.888C84.4237 103.298 83.8123 102.805 83.128 102.432C83.1072 103.636 83.1907 104.838 83.3776 106.027C83.0707 106.309 82.7784 106.606 82.502 106.918C81.1887 102.97 78.2998 98.2383 80.4091 94.6521C81.2462 93.2288 80.5517 93.0318 79.8138 92.8663C78.5258 92.5775 77.8284 87.2864 77.525 85.9999C77.1487 84.387 77.0027 82.5321 78.0051 81.2111C79.0074 79.89 81.5343 79.8401 82.0412 81.4185L83.1088 79.9745C84.4913 76.9522 88.1396 77.5667 91.4384 77.966C94.7372 78.3616 97.6443 80.6888 99.1228 83.665C100.597 86.6412 100.732 90.1781 99.8832 93.3925Z" fill="#2F2E41"/>
<path d="M94.7162 79.5577C94.6415 81.3822 95.1046 83.1883 96.0481 84.7516C96.9915 86.315 98.3736 87.5666 100.022 88.3509C100.692 88.6563 101.278 87.6637 100.604 87.3561C99.1306 86.6719 97.8938 85.5653 97.0506 84.1768C96.2074 82.7883 95.7959 81.1806 95.8683 79.5577C95.9085 78.8169 94.7563 78.8191 94.7162 79.5577Z" fill="#FF6584"/>
<path d="M49.5001 254.328C49.2952 254.338 49.0923 254.284 48.9189 254.174C48.7456 254.064 48.6102 253.904 48.531 253.715C48.4519 253.525 48.4328 253.316 48.4764 253.116C48.5201 252.915 48.6243 252.733 48.7749 252.594L48.8435 252.321C48.8345 252.3 48.8254 252.278 48.8163 252.256C47.895 250.059 42.0167 256.183 41.7625 258.247C41.6506 259.16 41.6978 260.085 41.9021 260.981C39.998 256.828 39.0093 252.313 39.0029 247.744C39.0025 246.597 39.0662 245.452 39.1937 244.312C39.2991 243.378 39.4453 242.451 39.6323 241.53C40.6529 236.533 42.844 231.851 46.0259 227.865C47.8456 227.967 49.4404 227.69 49.5944 224.163C49.6217 223.536 50.0871 222.993 50.1896 222.375C50.0159 222.397 49.8393 222.412 49.6656 222.423C49.6115 222.426 49.5545 222.429 49.5004 222.432L49.48 222.432C49.289 222.441 49.0997 222.394 48.9348 222.298C48.7698 222.201 48.6363 222.059 48.5503 221.888C48.4642 221.718 48.4294 221.526 48.4498 221.336C48.4703 221.146 48.5453 220.966 48.6658 220.817C48.7408 220.725 48.8158 220.633 48.8909 220.541C49.0049 220.398 49.1216 220.259 49.2355 220.116C49.2487 220.103 49.261 220.088 49.2725 220.073C49.4036 219.911 49.5346 219.752 49.6656 219.589C49.4264 219.218 49.1048 218.907 48.7257 218.681C47.4128 217.912 45.6016 218.444 44.6532 219.632C43.702 220.82 43.5226 222.486 43.8529 223.969C44.1778 225.232 44.7152 226.43 45.4421 227.512C45.3709 227.603 45.2968 227.692 45.2256 227.783C43.9241 229.456 42.7897 231.254 41.8388 233.148C42.1078 231.047 38.8178 223.457 37.5455 221.85C36.0172 219.919 32.8833 220.761 32.6141 223.209C32.6115 223.233 32.6089 223.257 32.6064 223.28C32.7954 223.387 32.9804 223.5 33.1614 223.62C33.3888 223.772 33.565 223.989 33.6669 224.242C33.7688 224.496 33.7917 224.775 33.7325 225.042C33.6734 225.309 33.5349 225.552 33.3354 225.739C33.1358 225.926 32.8844 226.048 32.6142 226.09L32.5865 226.094C30.0568 229.706 38.1663 239.107 40.1962 236.996C39.2408 239.703 38.6415 242.524 38.4134 245.386C38.2842 247.074 38.2919 248.771 38.4362 250.458L38.4276 250.398C37.9766 246.723 30.2392 241.259 27.9797 241.714C26.6781 241.976 25.3961 241.917 25.5937 243.23C25.5969 243.251 25.6001 243.272 25.6034 243.293C25.9541 243.436 26.2955 243.6 26.6258 243.785C26.8148 243.892 26.9997 244.005 27.1807 244.125C27.4081 244.277 27.5843 244.494 27.6862 244.748C27.7881 245.001 27.811 245.28 27.7519 245.547C27.6927 245.814 27.5543 246.057 27.3547 246.244C27.1552 246.431 26.9038 246.553 26.6335 246.595L26.6058 246.599C26.5859 246.602 26.5688 246.605 26.5489 246.608C25.3974 250.57 33.9367 256.964 39.1282 254.929H39.131C39.6455 257.165 40.3909 259.341 41.3553 261.423H49.301C49.3295 261.334 49.3551 261.243 49.3808 261.155C48.6453 261.201 47.9069 261.157 47.1821 261.024C47.7717 260.301 48.3612 259.571 48.9507 258.848C48.9639 258.835 48.9762 258.82 48.9877 258.805C49.2868 258.435 49.5886 258.068 49.8877 257.698L49.8878 257.697C49.9038 256.562 49.7735 255.43 49.5004 254.328L49.5001 254.328ZM40.4012 236.429L40.4054 236.424L40.4012 236.435V236.429ZM38.6412 252.295L38.5729 252.141C38.5757 252.03 38.5757 251.919 38.5729 251.805C38.5729 251.774 38.5672 251.743 38.5672 251.711C38.5928 251.908 38.6156 252.104 38.644 252.301L38.6412 252.295Z" fill="#CD314D"/>
<path d="M137.817 261.231H25.6353V262H137.817V261.231Z" fill="#CCCCCC"/>
<path d="M286.062 51.9576L286.053 51.9658C285.178 51.0757 283.994 50.5564 282.746 50.5153C281.498 50.4743 280.283 50.9147 279.351 51.7454C278.419 52.5761 277.843 53.7334 277.741 54.9775C277.639 56.2216 278.02 57.4572 278.804 58.4283L278.795 58.4365L285.274 65.7032L292.541 59.2244C293.019 58.7991 293.408 58.2839 293.686 57.7081C293.965 57.1324 294.127 56.5074 294.164 55.8688C294.201 55.2303 294.112 54.5907 293.901 53.9867C293.691 53.3827 293.364 52.8261 292.938 52.3487C292.512 51.8713 291.997 51.4824 291.421 51.2044C290.845 50.9263 290.22 50.7645 289.581 50.7282C288.942 50.6919 288.303 50.7818 287.699 50.9927C287.095 51.2037 286.539 51.5315 286.062 51.9576L286.062 51.9576Z" fill="#CD314D"/>
</g>
<defs>
<clipPath id="clip0_76_506">
<rect width="332.081" height="262" fill="white"/>
</clipPath>
</defs>
</svg>
