<svg width="370" height="240" viewBox="0 0 370 240" fill="none" xmlns="http://www.w3.org/2000/svg">
<g clip-path="url(#clip0_76_630)">
<path d="M360.509 146.576H347.525C347.247 146.577 346.973 146.515 346.723 146.394C346.473 146.274 346.254 146.098 346.082 145.881C345.911 145.669 345.791 145.422 345.73 145.157C345.669 144.892 345.669 144.617 345.729 144.352C346.949 138.969 346.89 133.376 345.558 128.02C345.455 127.61 345.497 127.177 345.678 126.795C345.858 126.413 346.165 126.106 346.547 125.925C351.97 123.387 356.951 123.453 361.349 126.121C361.58 126.259 361.777 126.446 361.929 126.668C362.08 126.89 362.181 127.143 362.224 127.408C363.156 133.231 363.192 139.162 362.33 144.996C362.269 145.435 362.051 145.837 361.716 146.127C361.381 146.418 360.952 146.578 360.509 146.576Z" fill="#CD314D"/>
<path d="M360.312 138.07H350.384C350.137 138.069 349.901 137.971 349.727 137.796C349.552 137.622 349.454 137.385 349.454 137.138C349.454 136.892 349.552 136.655 349.727 136.48C349.901 136.306 350.137 136.208 350.384 136.207H360.312C360.558 136.208 360.795 136.306 360.969 136.48C361.143 136.655 361.241 136.892 361.241 137.138C361.241 137.385 361.143 137.622 360.969 137.796C360.795 137.971 360.558 138.069 360.312 138.07Z" fill="white"/>
<path d="M360.312 134.804H350.384C350.137 134.804 349.901 134.705 349.727 134.531C349.552 134.356 349.454 134.119 349.454 133.873C349.454 133.626 349.552 133.389 349.727 133.215C349.901 133.04 350.137 132.942 350.384 132.941H360.312C360.558 132.942 360.795 133.04 360.969 133.215C361.143 133.389 361.241 133.626 361.241 133.873C361.241 134.119 361.143 134.356 360.969 134.531C360.795 134.705 360.558 134.804 360.312 134.804Z" fill="white"/>
<path d="M100.492 145.275C138.598 145.275 169.488 114.384 169.488 76.2791C169.488 38.1737 138.598 7.2832 100.492 7.2832C62.387 7.2832 31.4965 38.1737 31.4965 76.2791C31.4965 114.384 62.387 145.275 100.492 145.275Z" fill="#F2F2F2"/>
<path d="M180.511 143.233C187.726 143.233 193.576 137.384 193.576 130.169C193.576 122.954 187.726 117.104 180.511 117.104C173.296 117.104 167.447 122.954 167.447 130.169C167.447 137.384 173.296 143.233 180.511 143.233Z" fill="#F2F2F2"/>
<path d="M246.241 172.628C249.172 172.628 251.548 170.252 251.548 167.321C251.548 164.39 249.172 162.014 246.241 162.014C243.31 162.014 240.934 164.39 240.934 167.321C240.934 170.252 243.31 172.628 246.241 172.628Z" fill="#F2F2F2"/>
<path d="M287.22 188.195C284.981 171.093 274.266 154.296 257.906 148.83C264.457 166.407 264.579 185.733 258.251 203.391C255.787 210.192 252.337 217.5 254.74 224.323C256.235 228.569 259.847 231.801 263.875 233.811C267.902 235.821 272.364 236.763 276.77 237.685L277.64 238.396C284.524 222.58 289.458 205.298 287.22 188.195Z" fill="#F2F2F2"/>
<path d="M257.746 149.155C267.321 159.746 273.315 173.084 274.877 187.275C275.193 190.318 275.249 193.431 274.603 196.436C273.951 199.36 272.527 202.057 270.48 204.244C268.613 206.323 266.462 208.232 265.132 210.729C263.731 213.36 263.695 216.339 264.684 219.118C265.894 222.518 268.253 225.28 270.654 227.901C273.32 230.812 276.136 233.793 277.286 237.666C277.425 238.136 278.145 237.892 278.006 237.423C276.005 230.684 269.426 226.89 266.261 220.829C264.784 218 264.151 214.71 265.499 211.705C266.678 209.078 268.895 207.107 270.804 205.019C272.808 202.827 274.341 200.425 275.119 197.535C275.916 194.578 275.982 191.455 275.745 188.418C275.156 181.535 273.488 174.788 270.804 168.423C267.78 161.141 263.532 154.431 258.246 148.582C257.918 148.22 257.421 148.796 257.746 149.155H257.746Z" fill="white"/>
<path d="M274.643 182.676C276.988 182.09 279.049 180.69 280.458 178.726C281.866 176.761 282.531 174.36 282.332 171.951C282.29 171.463 281.531 171.505 281.573 171.993C281.762 174.236 281.143 176.473 279.828 178.3C278.512 180.127 276.587 181.423 274.4 181.955C273.925 182.071 274.17 182.791 274.643 182.676Z" fill="white"/>
<path d="M271.566 203.316C267.307 200.81 264.149 196.79 262.722 192.059C262.581 191.59 261.861 191.834 262.002 192.302C263.496 197.223 266.791 201.399 271.228 203.997C271.651 204.244 271.987 203.562 271.566 203.316Z" fill="white"/>
<path d="M267.079 161.866C266.219 162.282 265.269 162.477 264.314 162.435C263.36 162.392 262.431 162.114 261.61 161.624C261.191 161.371 260.856 162.054 261.273 162.305C262.181 162.842 263.208 163.149 264.262 163.198C265.317 163.247 266.367 163.037 267.322 162.586C267.415 162.551 267.492 162.482 267.536 162.393C267.581 162.303 267.589 162.2 267.561 162.105C267.528 162.01 267.459 161.931 267.369 161.886C267.279 161.842 267.174 161.834 267.079 161.866V161.866Z" fill="white"/>
<path d="M208.344 179.721C208.602 179.886 208.859 180.052 209.117 180.223C212.57 182.462 215.834 184.977 218.879 187.745C219.118 187.955 219.357 188.172 219.589 188.388C226.854 195.134 232.804 203.169 237.135 212.086C238.856 215.636 240.303 219.312 241.466 223.082C243.072 228.288 244.398 234.06 247.537 238.307C247.86 238.754 248.21 239.18 248.585 239.583L276.706 239.403C276.769 239.371 276.834 239.345 276.898 239.312L278.021 239.356C277.974 239.158 277.922 238.953 277.876 238.754C277.849 238.639 277.816 238.524 277.79 238.408C277.77 238.331 277.75 238.255 277.737 238.184C277.731 238.158 277.724 238.133 277.718 238.114C277.704 238.043 277.684 237.979 277.671 237.915C277.382 236.768 277.083 235.622 276.777 234.475C276.777 234.469 276.777 234.469 276.77 234.462C274.411 225.732 271.302 217.122 266.985 209.258C266.855 209.022 266.725 208.779 266.582 208.542C264.617 205.008 262.366 201.641 259.851 198.473C258.469 196.743 257 195.085 255.45 193.503C251.437 189.425 246.808 186.003 241.732 183.364C231.612 178.103 219.922 176.138 209.164 179.459C208.888 179.545 208.619 179.63 208.344 179.721Z" fill="#F2F2F2"/>
<path d="M208.41 180.077C222.431 182.768 235.247 189.809 245.039 200.2C247.123 202.438 249.042 204.891 250.335 207.679C251.575 210.407 252.061 213.416 251.744 216.396C251.505 219.179 250.937 221.999 251.378 224.793C251.843 227.737 253.609 230.138 256.071 231.761C259.084 233.747 262.631 234.532 266.127 235.18C270.008 235.898 274.05 236.583 277.301 238.984C277.695 239.275 278.123 238.646 277.73 238.356C272.074 234.18 264.537 235.112 258.361 232.177C255.479 230.808 252.992 228.562 252.26 225.352C251.619 222.544 252.202 219.636 252.469 216.82C252.75 213.862 252.528 211.022 251.409 208.245C250.265 205.405 248.437 202.872 246.419 200.59C241.805 195.449 236.411 191.065 230.435 187.599C223.637 183.606 216.206 180.805 208.463 179.318C207.984 179.226 207.933 179.985 208.41 180.077Z" fill="white"/>
<path d="M242.083 196.669C243.603 194.79 244.406 192.431 244.347 190.015C244.289 187.598 243.374 185.281 241.765 183.477C241.438 183.113 240.857 183.603 241.184 183.968C242.686 185.645 243.538 187.804 243.588 190.054C243.637 192.305 242.881 194.499 241.455 196.24C241.146 196.619 241.775 197.046 242.083 196.669Z" fill="white"/>
<path d="M252.052 215.001C247.143 215.564 242.201 214.256 238.214 211.338C237.819 211.049 237.39 211.677 237.785 211.966C241.94 214.995 247.085 216.346 252.193 215.748C252.679 215.691 252.536 214.944 252.052 215.001Z" fill="white"/>
<path d="M223.514 184.607C223.077 185.457 222.436 186.185 221.649 186.726C220.861 187.267 219.952 187.604 219.002 187.706C218.515 187.757 218.658 188.504 219.142 188.453C220.191 188.335 221.195 187.962 222.067 187.366C222.938 186.771 223.651 185.971 224.142 185.036C224.195 184.952 224.215 184.851 224.197 184.752C224.178 184.654 224.123 184.567 224.042 184.508C223.959 184.452 223.857 184.43 223.758 184.449C223.659 184.468 223.571 184.525 223.514 184.607H223.514Z" fill="white"/>
<path d="M343.22 121.355L339.417 84.5453L338.413 69.3954L349.058 67.4707C349.058 67.4707 350.652 77.8855 352.046 83.9974C353.422 90.0285 350.213 120.547 350.128 121.352C350.91 122.051 351.461 122.971 351.708 123.99C351.956 125.009 351.888 126.079 351.514 127.059C351.14 128.039 350.478 128.882 349.614 129.477C348.751 130.072 347.727 130.391 346.678 130.391C345.63 130.392 344.606 130.074 343.741 129.48C342.877 128.886 342.214 128.043 341.839 127.064C341.464 126.084 341.396 125.014 341.642 123.995C341.889 122.976 342.439 122.055 343.22 121.355Z" fill="#FFB8B8"/>
<path d="M299.723 234.379H294.308L291.732 213.492L299.724 213.493L299.723 234.379Z" fill="#FFB6B6"/>
<path d="M301.104 239.628L283.644 239.628V239.407C283.644 237.605 284.36 235.876 285.634 234.602C286.909 233.327 288.637 232.611 290.44 232.611H290.44L293.629 230.191L299.58 232.611L301.104 232.611L301.104 239.628Z" fill="#2F2E41"/>
<path d="M347.447 234.379H342.033L339.457 213.492L347.449 213.493L347.447 234.379Z" fill="#FFB6B6"/>
<path d="M348.829 239.628L331.368 239.628V239.407C331.368 237.605 332.084 235.876 333.359 234.602C334.633 233.327 336.362 232.611 338.164 232.611H338.165L341.354 230.191L347.305 232.611L348.829 232.611L348.829 239.628Z" fill="#2F2E41"/>
<path d="M339.212 122.593L343.766 165.86C343.766 165.86 349.829 209.184 348.69 215.161C347.552 221.139 348.975 221.993 348.975 221.993L338.586 221.253C338.586 221.253 338.87 217.553 337.162 215.845C335.454 214.137 336.308 209.013 336.308 209.013L316.154 138.533L303.914 175.539C303.914 175.539 301.922 216.244 301.637 216.814C301.352 217.383 300.498 225.069 300.498 225.069H289.966C289.966 225.069 291.389 220.514 289.397 219.091C287.404 217.668 285.696 218.806 287.404 216.244C289.112 213.682 289.681 210.551 289.112 209.128C288.543 207.705 288.543 202.012 288.543 202.012C288.543 202.012 289.397 125.155 294.236 122.593C299.075 120.031 339.212 122.593 339.212 122.593Z" fill="#2F2E41"/>
<path d="M317.643 34.9863C323.829 34.9863 328.845 29.9709 328.845 23.7841C328.845 17.5974 323.829 12.582 317.643 12.582C311.456 12.582 306.44 17.5974 306.44 23.7841C306.44 29.9709 311.456 34.9863 317.643 34.9863Z" fill="#FFB8B8"/>
<path d="M350.852 73.343L339.835 77.2942L336.479 78.4966L334.03 47.2129L342.436 51.6709C342.45 51.6813 342.462 51.6938 342.473 51.7078C343.928 53.3156 345.147 55.1232 346.091 57.0759C350.7 66.447 350.852 73.343 350.852 73.343Z" fill="#3F3D56"/>
<path d="M274.955 118.712C274.955 118.712 286.153 83.9206 286.348 83.5034C287.815 72.3659 292.033 67.453 292.666 67.9863L303.553 71.7582C303.553 71.7582 300.315 82.0132 298.122 88.1046C296.027 93.9251 281.678 120.798 281.275 121.5C281.708 122.455 281.84 123.519 281.655 124.551C281.47 125.584 280.975 126.535 280.238 127.28C279.5 128.025 278.553 128.529 277.523 128.724C276.492 128.92 275.427 128.798 274.468 128.375C273.508 127.951 272.7 127.247 272.149 126.354C271.599 125.462 271.333 124.423 271.386 123.376C271.438 122.328 271.808 121.322 272.445 120.489C273.083 119.656 273.958 119.037 274.955 118.712H274.955Z" fill="#FFB8B8"/>
<path d="M308.783 49.2268C308.783 49.2268 299.357 44.607 295.701 53.6805C293.306 59.7996 292.173 62.4688 290.574 68.8422C290.574 68.8422 300.182 70.2838 303.263 75.7135L308.783 49.2268Z" fill="#3F3D56"/>
<path d="M343.083 127.308C321.389 131.788 292.639 124.086 292.639 124.086L300.309 90.8414L297.582 56.0505C297.249 51.796 299.672 47.8079 303.442 46.3947L308.647 44.445L312.95 38.2852L325.24 38.6884L330.153 45.1553L334.03 47.2122L342.436 51.6703L342.473 51.6887V51.7072L339.835 77.2936L338.244 92.7208C338.244 92.7208 343.076 110.072 342.084 112.373C341.093 114.67 341.955 113.561 342.195 114.789C342.436 116.017 343.172 116.095 343.283 118.514C343.398 120.93 343.083 127.308 343.083 127.308Z" fill="#3F3D56"/>
<path d="M329.795 19.7957C328.909 18.9223 330.242 16.6103 329.99 15.3925C329.702 13.9962 328.163 13.9554 327.796 12.5776C327.401 11.0955 325.822 10.2887 324.362 9.81898C320.619 8.62141 316.626 8.43849 312.789 9.28892C311.091 9.70352 309.419 10.2185 307.782 10.8312C306.652 11.2289 307.742 10.1467 306.612 10.5444C306.184 10.6397 305.807 10.8902 305.553 11.2474C305.35 11.6315 305.624 12.2457 306.051 12.1679C304.671 12.7763 303.292 13.3847 301.912 13.993C302.686 14.8035 303.46 15.614 304.233 16.4245C303.134 16.1114 301.961 17.4228 302.395 18.4809C302.569 18.815 302.822 19.1016 303.132 19.3161C303.442 19.5306 303.799 19.6665 304.173 19.7122C305.416 19.954 304.473 21.1366 305.739 21.1135C307.005 21.0905 315.831 18.496 316.446 19.6023C316.884 20.3901 316.836 21.4336 317.462 22.0826C318.262 22.913 319.66 22.6093 320.679 22.0687C321.697 21.5281 322.731 20.7851 323.877 20.9147C325.073 21.05 325.978 23.2611 326.273 24.4287C326.568 25.5962 326.382 26.8247 326.194 28.0142C325.948 29.5763 323.482 31.1385 323.235 32.7006C325.972 33.4575 328.908 31.0492 329.99 26.8612C329.882 24.2137 331.681 21.6566 329.795 19.7957Z" fill="#2F2E41"/>
<path d="M155.648 165.282C122.671 165.283 93.9792 140.683 89.7405 107.13L90.5506 107.028C94.7369 140.166 123.079 164.463 155.649 164.465C158.416 164.465 161.18 164.291 163.925 163.943C199.846 159.405 225.378 126.489 220.84 90.5683L221.651 90.4658C226.245 126.833 200.395 160.159 164.028 164.753C161.248 165.105 158.45 165.281 155.648 165.282Z" fill="#3F3D56"/>
<path d="M157.419 178.937H144.434C144.157 178.938 143.883 178.876 143.633 178.755C143.383 178.635 143.164 178.459 142.991 178.242C142.821 178.03 142.701 177.783 142.64 177.518C142.579 177.253 142.579 176.978 142.639 176.713C143.871 171.275 143.798 165.623 142.427 160.219C142.333 159.846 142.36 159.452 142.503 159.095C142.646 158.738 142.898 158.435 143.223 158.229C147.715 155.447 152.606 155.533 158.177 158.495C158.43 158.629 158.649 158.819 158.817 159.051C158.985 159.283 159.097 159.55 159.144 159.832C160.066 165.635 160.099 171.544 159.24 177.357C159.179 177.796 158.96 178.198 158.626 178.488C158.291 178.779 157.862 178.938 157.419 178.937Z" fill="#CD314D"/>
<path d="M98.221 109.532H85.2369C84.9595 109.533 84.6855 109.471 84.4356 109.35C84.1857 109.23 83.9663 109.055 83.7938 108.837C83.6234 108.626 83.5032 108.378 83.4422 108.113C83.3812 107.848 83.381 107.573 83.4416 107.308C84.6782 101.852 84.6005 96.1794 83.2149 90.7589C83.1273 90.402 83.1485 90.027 83.2758 89.6822C83.4031 89.3375 83.6306 89.0387 83.9292 88.8244C90.6057 84.0226 95.8636 84.1619 99.5571 89.2392C99.7236 89.4707 99.8342 89.7375 99.8802 90.0189C100.867 95.9517 100.922 102.002 100.042 107.952C99.9809 108.391 99.7628 108.793 99.428 109.084C99.0932 109.374 98.6644 109.534 98.221 109.532Z" fill="#CCCCCC"/>
<path d="M151.352 166.751H146.885C146.639 166.751 146.402 166.652 146.228 166.478C146.054 166.303 145.956 166.067 145.956 165.82C145.956 165.573 146.054 165.337 146.228 165.162C146.402 164.988 146.639 164.889 146.885 164.889H151.352C151.599 164.889 151.836 164.987 152.01 165.161C152.185 165.336 152.283 165.573 152.283 165.82C152.283 166.067 152.185 166.304 152.01 166.478C151.836 166.653 151.599 166.751 151.352 166.751Z" fill="white"/>
<path d="M156.813 170.431H146.885C146.639 170.43 146.402 170.332 146.228 170.157C146.054 169.983 145.956 169.746 145.956 169.5C145.956 169.253 146.054 169.016 146.228 168.842C146.402 168.667 146.639 168.569 146.885 168.568H156.813C157.06 168.569 157.296 168.667 157.471 168.842C157.645 169.016 157.743 169.253 157.743 169.5C157.743 169.746 157.645 169.983 157.471 170.157C157.296 170.332 157.06 170.43 156.813 170.431Z" fill="white"/>
<path d="M94.1956 96.5305H89.729C89.4824 96.53 89.246 96.4317 89.0718 96.2571C88.8975 96.0825 88.7997 95.8459 88.7997 95.5993C88.7997 95.3526 88.8975 95.116 89.0718 94.9414C89.246 94.7668 89.4824 94.6685 89.729 94.668H94.1956C94.4422 94.6685 94.6786 94.7668 94.8528 94.9414C95.0271 95.116 95.1249 95.3526 95.1249 95.5993C95.1249 95.8459 95.0271 96.0825 94.8528 96.2571C94.6786 96.4317 94.4422 96.53 94.1956 96.5305Z" fill="white"/>
<path d="M94.1956 99.7962H89.729C89.4824 99.7956 89.246 99.6973 89.0718 99.5227C88.8975 99.3481 88.7997 99.1115 88.7997 98.8649C88.7997 98.6182 88.8975 98.3816 89.0718 98.207C89.246 98.0325 89.4824 97.9341 89.729 97.9336H94.1956C94.4422 97.9341 94.6786 98.0325 94.8528 98.207C95.0271 98.3816 95.1249 98.6182 95.1249 98.8649C95.1249 99.1115 95.0271 99.3481 94.8528 99.5227C94.6786 99.6973 94.4422 99.7956 94.1956 99.7962Z" fill="white"/>
<path d="M94.1956 103.063H89.729C89.4824 103.062 89.246 102.964 89.0718 102.789C88.8975 102.615 88.7997 102.378 88.7997 102.131C88.7997 101.885 88.8975 101.648 89.0718 101.474C89.246 101.299 89.4824 101.201 89.729 101.2H94.1956C94.4422 101.201 94.6786 101.299 94.8528 101.474C95.0271 101.648 95.1249 101.885 95.1249 102.131C95.1249 102.378 95.0271 102.615 94.8528 102.789C94.6786 102.964 94.4422 103.062 94.1956 103.063Z" fill="white"/>
<path d="M272.973 124.873H231.467C230.355 124.872 229.289 124.429 228.502 123.643C227.716 122.856 227.273 121.79 227.272 120.677V95.1135C227.273 94.0012 227.716 92.9348 228.502 92.1482C229.289 91.3617 230.355 90.9192 231.467 90.918H272.973C274.085 90.9192 275.152 91.3617 275.938 92.1482C276.725 92.9348 277.167 94.0012 277.169 95.1136V120.677C277.167 121.79 276.725 122.856 275.938 123.643C275.152 124.429 274.085 124.872 272.973 124.873Z" fill="#E6E6E6"/>
<path d="M256.482 121.579H234.385C233.343 121.578 232.344 121.164 231.608 120.427C230.871 119.691 230.457 118.692 230.456 117.65V98.1393C230.457 97.0975 230.871 96.0987 231.608 95.3621C232.344 94.6254 233.343 94.2111 234.385 94.21H270.056C271.097 94.2111 272.096 94.6255 272.833 95.3621C273.569 96.0987 273.984 97.0975 273.985 98.1393V104.077C273.98 108.717 272.134 113.166 268.853 116.447C265.571 119.728 261.123 121.574 256.482 121.579Z" fill="white"/>
<path d="M266.497 104.895H237.943C237.696 104.895 237.459 104.797 237.285 104.622C237.11 104.447 237.012 104.21 237.012 103.963C237.012 103.716 237.11 103.48 237.285 103.305C237.459 103.13 237.696 103.032 237.943 103.032H266.497C266.744 103.032 266.981 103.13 267.156 103.305C267.33 103.48 267.429 103.716 267.429 103.963C267.429 104.21 267.33 104.447 267.156 104.622C266.981 104.797 266.744 104.895 266.497 104.895Z" fill="#CD314D"/>
<path d="M242.41 108.574H237.943C237.697 108.573 237.46 108.475 237.286 108.3C237.112 108.125 237.014 107.889 237.014 107.642C237.014 107.396 237.112 107.159 237.286 106.984C237.46 106.81 237.697 106.711 237.943 106.711H242.41C242.657 106.711 242.893 106.81 243.067 106.984C243.241 107.159 243.339 107.396 243.339 107.642C243.339 107.889 243.241 108.125 243.067 108.3C242.893 108.475 242.657 108.573 242.41 108.574Z" fill="#CD314D"/>
<path d="M250.321 112.254H237.943C237.696 112.254 237.459 112.156 237.285 111.981C237.11 111.807 237.012 111.57 237.012 111.323C237.012 111.076 237.11 110.839 237.285 110.664C237.459 110.49 237.696 110.392 237.943 110.392H250.321C250.568 110.392 250.805 110.49 250.979 110.664C251.154 110.839 251.252 111.076 251.252 111.323C251.252 111.57 251.154 111.807 250.979 111.981C250.805 112.156 250.568 112.254 250.321 112.254Z" fill="#CD314D"/>
<path d="M225.823 99.1881C230.672 99.1881 234.603 95.2572 234.603 90.408C234.603 85.5589 230.672 81.6279 225.823 81.6279C220.974 81.6279 217.043 85.5589 217.043 90.408C217.043 95.2572 220.974 99.1881 225.823 99.1881Z" fill="#3F3D56"/>
<path d="M126.432 23.6182C127.014 20.6679 128.17 17.8611 129.836 15.3578C131.502 12.8546 133.645 10.704 136.142 9.02881C141.185 5.6457 147.366 4.40456 153.324 5.57842C156.275 6.15966 159.082 7.3163 161.585 8.9823C164.088 10.6483 166.239 12.7911 167.914 15.2882C169.589 17.7853 170.756 20.588 171.348 23.5361C171.94 26.4842 171.945 29.52 171.364 32.4703L170.563 32.3125C171.695 26.5667 170.498 20.6066 167.236 15.7433C163.973 10.8799 158.912 7.5118 153.167 6.37978C147.421 5.24777 141.461 6.44462 136.597 9.70704C131.734 12.9695 128.366 18.0302 127.234 23.776L126.432 23.6182Z" fill="#3F3D56"/>
<path d="M135.128 38.0635L122.155 38.6008C121.877 38.6129 121.601 38.5621 121.346 38.4521C121.092 38.3422 120.865 38.176 120.684 37.966C120.505 37.7615 120.375 37.5191 120.303 37.257C120.231 36.9949 120.219 36.72 120.269 36.4527C121.264 31.0242 120.974 25.4379 119.422 20.1416C119.302 19.7366 119.326 19.3025 119.49 18.9134C119.655 18.5243 119.949 18.2042 120.323 18.0078C125.637 15.2471 130.616 15.1071 135.121 17.5912C135.357 17.7195 135.562 17.8977 135.722 18.1135C135.882 18.3293 135.994 18.5774 136.048 18.8405C137.221 24.6198 137.502 30.5445 136.882 36.4089C136.839 36.8502 136.637 37.2609 136.315 37.5651C135.992 37.8694 135.571 38.0464 135.128 38.0635Z" fill="#CD314D"/>
<path d="M134.579 29.5727L124.659 29.9835C124.537 29.9887 124.415 29.9697 124.3 29.9277C124.185 29.8857 124.079 29.8214 123.989 29.7386C123.899 29.6557 123.826 29.556 123.775 29.445C123.724 29.334 123.694 29.2139 123.689 29.0916C123.684 28.9694 123.703 28.8473 123.745 28.7324C123.788 28.6176 123.852 28.5121 123.935 28.4221C124.018 28.3321 124.118 28.2593 124.229 28.2079C124.34 28.1565 124.46 28.1275 124.582 28.1226L134.501 27.7117C134.624 27.7067 134.746 27.7257 134.86 27.7678C134.975 27.8099 135.081 27.8742 135.171 27.957C135.261 28.0398 135.333 28.1396 135.385 28.2505C135.436 28.3615 135.465 28.4815 135.47 28.6037C135.476 28.7259 135.456 28.8479 135.414 28.9627C135.372 29.0775 135.308 29.1829 135.225 29.2729C135.142 29.3629 135.043 29.4357 134.932 29.4871C134.821 29.5386 134.701 29.5676 134.579 29.5727Z" fill="white"/>
<path d="M134.443 26.31L124.524 26.7209C124.277 26.7311 124.037 26.6428 123.855 26.4756C123.673 26.3083 123.565 26.0757 123.555 25.8289C123.545 25.5821 123.633 25.3414 123.8 25.1597C123.968 24.9779 124.2 24.8701 124.447 24.8599L134.366 24.449C134.613 24.4388 134.854 24.5271 135.036 24.6943C135.217 24.8616 135.325 25.0942 135.335 25.341C135.346 25.5878 135.257 25.8285 135.09 26.0102C134.923 26.192 134.69 26.2998 134.443 26.31Z" fill="white"/>
<path d="M220.028 33.9548H178.522C177.41 33.9536 176.344 33.5111 175.557 32.7246C174.771 31.938 174.328 30.8716 174.327 29.7592V4.19559C174.328 3.08324 174.771 2.01681 175.557 1.23025C176.344 0.443701 177.41 0.00126102 178.522 0H220.028C221.141 0.0012567 222.207 0.443694 222.994 1.23025C223.78 2.0168 224.222 3.08324 224.224 4.19559V29.7592C224.222 30.8716 223.78 31.938 222.994 32.7246C222.207 33.5111 221.141 33.9536 220.028 33.9548Z" fill="#E6E6E6"/>
<path d="M203.537 30.6623H181.44C180.398 30.6611 179.399 30.2468 178.663 29.5102C177.926 28.7735 177.512 27.7748 177.511 26.733V7.22227C177.512 6.18049 177.926 5.18172 178.663 4.44509C179.399 3.70846 180.398 3.29412 181.44 3.29297H217.111C218.153 3.29412 219.151 3.70848 219.888 4.44511C220.625 5.18175 221.039 6.18051 221.04 7.22227V13.1598C221.035 17.8002 219.189 22.249 215.908 25.5302C212.627 28.8114 208.178 30.6571 203.537 30.6623Z" fill="white"/>
<path d="M213.552 13.9767H184.998C184.751 13.9767 184.515 13.8786 184.34 13.704C184.165 13.5293 184.067 13.2925 184.067 13.0455C184.067 12.7985 184.165 12.5617 184.34 12.387C184.515 12.2124 184.751 12.1143 184.998 12.1143H213.552C213.799 12.1143 214.036 12.2124 214.211 12.387C214.385 12.5617 214.484 12.7985 214.484 13.0455C214.484 13.2925 214.385 13.5293 214.211 13.704C214.036 13.8786 213.799 13.9767 213.552 13.9767Z" fill="#CD314D"/>
<path d="M189.465 17.6555H184.998C184.752 17.655 184.515 17.5567 184.341 17.3821C184.167 17.2075 184.069 16.9709 184.069 16.7242C184.069 16.4776 184.167 16.241 184.341 16.0664C184.515 15.8918 184.752 15.7935 184.998 15.793H189.465C189.712 15.7935 189.948 15.8918 190.122 16.0664C190.296 16.241 190.394 16.4776 190.394 16.7242C190.394 16.9709 190.296 17.2075 190.122 17.3821C189.948 17.5567 189.712 17.655 189.465 17.6555Z" fill="#CD314D"/>
<path d="M197.376 21.3362H184.998C184.751 21.3362 184.515 21.2381 184.34 21.0634C184.165 20.8888 184.067 20.6519 184.067 20.4049C184.067 20.1579 184.165 19.921 184.34 19.7464C184.515 19.5718 184.751 19.4736 184.998 19.4736H197.376C197.622 19.4741 197.859 19.5725 198.033 19.7471C198.207 19.9217 198.305 20.1583 198.305 20.4049C198.305 20.6516 198.207 20.8882 198.033 21.0627C197.859 21.2373 197.622 21.3357 197.376 21.3362Z" fill="#CD314D"/>
<path d="M179.26 38.3801C181.82 34.2619 180.557 28.848 176.438 26.288C172.32 23.728 166.906 24.9913 164.346 29.1096C161.786 33.2279 163.049 38.6417 167.168 41.2017C171.286 43.7617 176.7 42.4984 179.26 38.3801Z" fill="#3F3D56"/>
<path d="M368.9 240H248.271C248.172 240 248.076 239.96 248.006 239.89C247.936 239.819 247.896 239.724 247.896 239.624C247.896 239.525 247.936 239.429 248.006 239.359C248.076 239.289 248.172 239.249 248.271 239.249H368.9C369 239.249 369.095 239.289 369.166 239.359C369.236 239.429 369.276 239.525 369.276 239.624C369.276 239.724 369.236 239.819 369.166 239.89C369.095 239.96 369 240 368.9 240Z" fill="#CCCCCC"/>
<path d="M54.8408 102.24C51.2385 92.7172 51.5668 82.1534 55.7532 72.8725C59.9397 63.5916 67.6416 56.3539 77.1644 52.7517C86.6873 49.1494 97.2512 49.4776 106.532 53.6641C115.813 57.8506 123.051 65.5524 126.653 75.0753L125.889 75.3643C124.143 70.7494 121.506 66.5235 118.127 62.9279C114.748 59.3323 110.694 56.4375 106.196 54.4086C101.699 52.3798 96.8454 51.2567 91.9137 51.1034C86.982 50.9502 82.0684 51.7698 77.4535 53.5155C72.8386 55.2613 68.6127 57.8988 65.0171 61.2777C61.4215 64.6566 58.5266 68.7106 56.4978 73.2083C54.4689 77.7059 53.3458 82.5591 53.1926 87.4908C53.0394 92.4225 53.859 97.3361 55.6047 101.951L54.8408 102.24Z" fill="#3F3D56"/>
<path d="M88.4228 64.2168H75.4386C75.1612 64.2174 74.8872 64.1551 74.6373 64.0347C74.3874 63.9144 74.168 63.7389 73.9955 63.5217C73.8252 63.3099 73.705 63.0623 73.6439 62.7975C73.5829 62.5326 73.5827 62.2574 73.6433 61.9925C74.8724 56.5675 74.8029 50.9289 73.4404 45.5359C73.3437 45.1542 73.3734 44.7515 73.5248 44.3881C73.6762 44.0247 73.9413 43.7202 74.2804 43.5201C78.9838 40.7823 84.0065 40.8658 89.2086 43.7691C89.4549 43.9034 89.6672 44.0922 89.8294 44.321C89.9917 44.5498 90.0995 44.8127 90.1447 45.0895C91.0706 50.8993 91.104 56.8163 90.2438 62.6362C90.1827 63.0753 89.9645 63.4774 89.6297 63.768C89.2949 64.0586 88.8661 64.218 88.4228 64.2168Z" fill="#CD314D"/>
<path d="M82.3561 51.6223H77.8895C77.6428 51.6218 77.4065 51.5235 77.2322 51.3489C77.058 51.1743 76.9601 50.9377 76.9601 50.691C76.9601 50.4444 77.058 50.2078 77.2322 50.0332C77.4065 49.8586 77.6428 49.7603 77.8895 49.7598H82.3561C82.6027 49.7603 82.8391 49.8586 83.0133 50.0332C83.1875 50.2078 83.2854 50.4444 83.2854 50.691C83.2854 50.9377 83.1875 51.1743 83.0133 51.3489C82.8391 51.5235 82.6027 51.6218 82.3561 51.6223Z" fill="white"/>
<path d="M87.8174 55.3011H77.8895C77.6425 55.3011 77.4057 55.2029 77.231 55.0283C77.0564 54.8536 76.9583 54.6168 76.9583 54.3698C76.9583 54.1228 77.0564 53.8859 77.231 53.7112C77.4057 53.5366 77.6425 53.4385 77.8895 53.4385H87.8174C88.0641 53.439 88.3004 53.5373 88.4747 53.7119C88.6489 53.8865 88.7467 54.1231 88.7467 54.3698C88.7467 54.6164 88.6489 54.853 88.4747 55.0276C88.3004 55.2022 88.0641 55.3005 87.8174 55.3011Z" fill="white"/>
<path d="M45.7013 101.726H4.19557C3.08322 101.725 2.01679 101.283 1.23024 100.496C0.443686 99.7095 0.00125453 98.6431 0 97.5307V71.9671C0.00125453 70.8547 0.443686 69.7883 1.23024 69.0017C2.01679 68.2152 3.08322 67.7727 4.19557 67.7715H45.7013C46.8137 67.7727 47.8801 68.2152 48.6667 69.0017C49.4532 69.7883 49.8956 70.8547 49.8969 71.9671V97.5307C49.8956 98.6431 49.4532 99.7095 48.6667 100.496C47.8801 101.283 46.8137 101.725 45.7013 101.726Z" fill="#E6E6E6"/>
<path d="M29.2105 98.4328H7.11321C6.07143 98.4316 5.07265 98.0173 4.33598 97.2807C3.59931 96.544 3.18492 95.5453 3.18372 94.5035V74.9928C3.18492 73.951 3.59931 72.9522 4.33598 72.2156C5.07265 71.479 6.07143 71.0646 7.11321 71.0635H42.7839C43.8257 71.0646 44.8244 71.479 45.5611 72.2156C46.2977 72.9522 46.712 73.951 46.7132 74.9928V80.9303C46.7079 85.5707 44.8622 90.0195 41.5809 93.3007C38.2997 96.5819 33.8508 98.4276 29.2105 98.4328Z" fill="white"/>
<path d="M39.2254 81.7472H10.6715C10.4245 81.7472 10.1876 81.6491 10.013 81.4745C9.83835 81.2998 9.74023 81.063 9.74023 80.816C9.74023 80.569 9.83835 80.3322 10.013 80.1575C10.1876 79.9829 10.4245 79.8848 10.6715 79.8848H39.2254C39.4724 79.8848 39.7092 79.9829 39.8839 80.1575C40.0585 80.3322 40.1566 80.569 40.1566 80.816C40.1566 81.063 40.0585 81.2998 39.8839 81.4745C39.7092 81.6491 39.4724 81.7472 39.2254 81.7472Z" fill="#CD314D"/>
<path d="M15.138 85.427H10.6715C10.4248 85.4265 10.1884 85.3282 10.0142 85.1536C9.83997 84.979 9.74213 84.7424 9.74213 84.4957C9.74213 84.2491 9.83997 84.0125 10.0142 83.8379C10.1884 83.6633 10.4248 83.565 10.6715 83.5645H15.138C15.3847 83.565 15.6211 83.6633 15.7953 83.8379C15.9695 84.0125 16.0674 84.2491 16.0674 84.4957C16.0674 84.7424 15.9695 84.979 15.7953 85.1536C15.6211 85.3282 15.3847 85.4265 15.138 85.427Z" fill="#CD314D"/>
<path d="M23.0489 89.1067H10.6715C10.4248 89.1062 10.1884 89.0078 10.0142 88.8333C9.83997 88.6587 9.74213 88.4221 9.74213 88.1754C9.74213 87.9288 9.83997 87.6922 10.0142 87.5176C10.1884 87.343 10.4248 87.2447 10.6715 87.2441H23.0489C23.2959 87.2441 23.5328 87.3423 23.7074 87.5169C23.8821 87.6916 23.9802 87.9284 23.9802 88.1754C23.9802 88.4224 23.8821 88.6593 23.7074 88.8339C23.5328 89.0086 23.2959 89.1067 23.0489 89.1067Z" fill="#CD314D"/>
<path d="M62.0893 105.335C64.6493 101.217 63.386 95.8031 59.2677 93.2431C55.1495 90.6831 49.7356 91.9464 47.1756 96.0647C44.6156 100.183 45.8789 105.597 49.9972 108.157C54.1155 110.717 59.5293 109.454 62.0893 105.335Z" fill="#3F3D56"/>
<path d="M132.923 88.7112H119.939C119.662 88.7118 119.388 88.6495 119.138 88.5291C118.888 88.4088 118.668 88.2333 118.496 88.016C118.326 87.8043 118.205 87.5567 118.144 87.2919C118.083 87.027 118.083 86.7518 118.144 86.4869C119.371 81.0715 119.303 75.4431 117.948 70.0584C117.852 69.6714 117.884 69.2637 118.041 68.8969C118.197 68.5301 118.469 68.2244 118.815 68.0261C125.123 64.4156 130.117 64.5152 134.084 68.3309C134.362 68.6031 134.545 68.9575 134.606 69.3418C135.57 75.2287 135.616 81.2294 134.744 87.1306C134.683 87.5697 134.465 87.9717 134.13 88.2623C133.795 88.5529 133.366 88.7124 132.923 88.7112Z" fill="#FF6584"/>
<path d="M127.673 76.5257H123.206C122.96 76.5251 122.723 76.4268 122.549 76.2522C122.375 76.0776 122.277 75.841 122.277 75.5944C122.277 75.3477 122.375 75.1111 122.549 74.9365C122.723 74.7619 122.96 74.6636 123.206 74.6631H127.673C127.92 74.6636 128.156 74.7619 128.33 74.9365C128.504 75.1111 128.602 75.3477 128.602 75.5944C128.602 75.841 128.504 76.0776 128.33 76.2522C128.156 76.4268 127.92 76.5251 127.673 76.5257Z" fill="white"/>
<path d="M133.134 80.2053H123.206C122.959 80.2053 122.722 80.1072 122.548 79.9326C122.373 79.7579 122.275 79.5211 122.275 79.2741C122.275 79.0271 122.373 78.7902 122.548 78.6155C122.722 78.4409 122.959 78.3428 123.206 78.3428H133.134C133.381 78.3433 133.617 78.4416 133.791 78.6162C133.966 78.7908 134.064 79.0274 134.064 79.2741C134.064 79.5207 133.966 79.7573 133.791 79.9319C133.617 80.1065 133.381 80.2048 133.134 80.2053Z" fill="white"/>
</g>
<defs>
<clipPath id="clip0_76_630">
<rect width="369.276" height="240" fill="white"/>
</clipPath>
</defs>
</svg>
