<svg width="21" height="20" viewBox="0 0 21 20" fill="none" xmlns="http://www.w3.org/2000/svg">
<path d="M10.6667 7.61875C10.1958 7.61893 9.73552 7.75873 9.34404 8.0205C8.95256 8.28226 8.64749 8.65422 8.4674 9.08935C8.2873 9.52449 8.24027 10.0032 8.33226 10.4651C8.42424 10.927 8.6511 11.3512 8.98416 11.6841C9.31722 12.017 9.74152 12.2438 10.2034 12.3356C10.6653 12.4274 11.144 12.3802 11.5791 12.1999C12.0142 12.0196 12.386 11.7144 12.6476 11.3229C12.9093 10.9313 13.0489 10.4709 13.0489 10C13.0484 9.36844 12.7973 8.7629 12.3506 8.31641C11.9039 7.86992 11.2983 7.61899 10.6667 7.61875V7.61875ZM16.2342 5.78839C16.1129 5.48118 15.9299 5.20215 15.6963 4.96862C15.4628 4.73509 15.1838 4.55203 14.8766 4.4308C13.9391 4.06071 11.7069 4.14375 10.6667 4.14375C9.62657 4.14375 7.39666 4.05759 6.45648 4.4308C6.14927 4.55203 5.87024 4.73509 5.63671 4.96862C5.40317 5.20215 5.22012 5.48118 5.09889 5.78839C4.72925 6.72589 4.81184 8.96027 4.81184 9.99955C4.81184 11.0388 4.72925 13.2705 5.10068 14.2112C5.2219 14.5184 5.40496 14.7974 5.63849 15.0309C5.87202 15.2645 6.15105 15.4475 6.45827 15.5687C7.39577 15.9388 9.62791 15.8558 10.6685 15.8558C11.7092 15.8558 13.9382 15.942 14.8784 15.5687C15.1856 15.4475 15.4646 15.2645 15.6981 15.0309C15.9317 14.7974 16.1147 14.5184 16.2359 14.2112C16.6087 13.2737 16.523 11.0393 16.523 10C16.523 8.96071 16.6087 6.72946 16.2359 5.78884L16.2342 5.78839ZM10.6667 13.6607C9.94273 13.6607 9.23497 13.446 8.63296 13.0438C8.03096 12.6415 7.56176 12.0698 7.28469 11.4009C7.00762 10.732 6.93512 9.99594 7.07637 9.28583C7.21762 8.57572 7.56627 7.92344 8.07823 7.41148C8.59019 6.89952 9.24247 6.55087 9.95258 6.40963C10.6627 6.26838 11.3987 6.34087 12.0676 6.61794C12.7366 6.89501 13.3083 7.36421 13.7105 7.96622C14.1128 8.56822 14.3275 9.27598 14.3275 10C14.3281 10.4809 14.2338 10.9572 14.05 11.4016C13.8662 11.846 13.5966 12.2498 13.2566 12.5898C12.9165 12.9299 12.5127 13.1995 12.0683 13.3833C11.6239 13.567 11.1476 13.6613 10.6667 13.6607V13.6607ZM14.4784 7.04018C14.3093 7.04027 14.1441 6.99023 14.0035 6.89639C13.8629 6.80256 13.7534 6.66914 13.6886 6.51301C13.6239 6.35689 13.6069 6.18507 13.6398 6.01929C13.6727 5.85351 13.7541 5.70122 13.8736 5.58167C13.993 5.46213 14.1453 5.38071 14.311 5.3477C14.4768 5.3147 14.6486 5.33159 14.8048 5.39625C14.961 5.46091 15.0944 5.57043 15.1883 5.71095C15.2822 5.85148 15.3324 6.0167 15.3324 6.18571C15.3328 6.29795 15.3112 6.40918 15.2685 6.51301C15.2259 6.61685 15.1632 6.71125 15.0841 6.7908C15.0049 6.87035 14.9108 6.93349 14.8071 6.97659C14.7035 7.01969 14.5924 7.04191 14.4801 7.04196L14.4784 7.04018ZM18.5239 0H2.80961C2.24128 0 1.69624 0.225765 1.29438 0.627628C0.892513 1.02949 0.666748 1.57454 0.666748 2.14286L0.666748 17.8571C0.666748 18.4255 0.892513 18.9705 1.29438 19.3724C1.69624 19.7742 2.24128 20 2.80961 20H18.5239C19.0922 20 19.6373 19.7742 20.0391 19.3724C20.441 18.9705 20.6667 18.4255 20.6667 17.8571V2.14286C20.6667 1.57454 20.441 1.02949 20.0391 0.627628C19.6373 0.225765 19.0922 0 18.5239 0V0ZM17.7596 12.9464C17.702 14.0906 17.4409 15.1045 16.6056 15.9375C15.7703 16.7705 14.7574 17.0371 13.6145 17.0915C12.4355 17.158 8.90068 17.158 7.72166 17.0915C6.57746 17.0339 5.56719 16.7723 4.73059 15.9375C3.89398 15.1027 3.63103 14.0884 3.57657 12.9464C3.51005 11.767 3.51005 8.2317 3.57657 7.05357C3.63416 5.90938 3.89219 4.89554 4.73059 4.0625C5.56898 3.22946 6.58193 2.96607 7.72166 2.91161C8.90068 2.84509 12.4355 2.84509 13.6145 2.91161C14.7587 2.9692 15.7721 3.2308 16.6056 4.06563C17.4391 4.90045 17.7051 5.91473 17.7596 7.05893C17.8261 8.23393 17.8261 11.7661 17.7596 12.9464Z" fill="#1C263F"/>
</svg>
