<svg width="21" height="20" viewBox="0 0 21 20" fill="none" xmlns="http://www.w3.org/2000/svg">
<path d="M19.2382 0H2.09086C1.30514 0 0.666748 0.647322 0.666748 1.44196V18.558C0.666748 19.3527 1.30514 20 2.09086 20H19.2382C20.0239 20 20.6667 19.3527 20.6667 18.558V1.44196C20.6667 0.647322 20.0239 0 19.2382 0ZM6.71139 17.1429H3.74711V7.59821H6.71586V17.1429H6.71139ZM5.22925 6.29464C4.27836 6.29464 3.5105 5.52232 3.5105 4.57589C3.5105 3.62946 4.27836 2.85714 5.22925 2.85714C6.17568 2.85714 6.948 3.62946 6.948 4.57589C6.948 5.52679 6.18014 6.29464 5.22925 6.29464ZM17.823 17.1429H14.8587V12.5C14.8587 11.3929 14.8364 9.96875 13.3185 9.96875C11.7739 9.96875 11.5373 11.1741 11.5373 12.4196V17.1429H8.573V7.59821H11.4167V8.90179H11.4569C11.8542 8.15179 12.823 7.36161 14.265 7.36161C17.265 7.36161 17.823 9.33929 17.823 11.9107V17.1429Z" fill="#1C263F"/>
</svg>
