<svg width="21" height="20" viewBox="0 0 21 20" fill="none" xmlns="http://www.w3.org/2000/svg">
<path d="M4.99012 12.6384C4.99012 13.7946 4.04547 14.7393 2.88922 14.7393C1.73297 14.7393 0.78833 13.7946 0.78833 12.6384C0.78833 11.4821 1.73297 10.5375 2.88922 10.5375H4.99012V12.6384ZM6.04904 12.6384C6.04904 11.4821 6.99369 10.5375 8.14994 10.5375C9.30619 10.5375 10.2508 11.4821 10.2508 12.6384V17.8991C10.2508 19.0554 9.30619 20 8.14994 20C6.99369 20 6.04904 19.0554 6.04904 17.8991V12.6384ZM8.14994 4.20179C6.99369 4.20179 6.04904 3.25714 6.04904 2.10089C6.04904 0.944643 6.99369 0 8.14994 0C9.30619 0 10.2508 0.944643 10.2508 2.10089V4.20179H8.14994V4.20179ZM8.14994 5.26071C9.30619 5.26071 10.2508 6.20536 10.2508 7.36161C10.2508 8.51786 9.30619 9.4625 8.14994 9.4625H2.88922C1.73297 9.4625 0.78833 8.51786 0.78833 7.36161C0.78833 6.20536 1.73297 5.26071 2.88922 5.26071H8.14994V5.26071ZM16.5865 7.36161C16.5865 6.20536 17.5312 5.26071 18.6874 5.26071C19.8437 5.26071 20.7883 6.20536 20.7883 7.36161C20.7883 8.51786 19.8437 9.4625 18.6874 9.4625H16.5865V7.36161V7.36161ZM15.5276 7.36161C15.5276 8.51786 14.583 9.4625 13.4267 9.4625C12.2705 9.4625 11.3258 8.51786 11.3258 7.36161V2.10089C11.3258 0.944643 12.2705 0 13.4267 0C14.583 0 15.5276 0.944643 15.5276 2.10089V7.36161V7.36161ZM13.4267 15.7982C14.583 15.7982 15.5276 16.7429 15.5276 17.8991C15.5276 19.0554 14.583 20 13.4267 20C12.2705 20 11.3258 19.0554 11.3258 17.8991V15.7982H13.4267ZM13.4267 14.7393C12.2705 14.7393 11.3258 13.7946 11.3258 12.6384C11.3258 11.4821 12.2705 10.5375 13.4267 10.5375H18.6874C19.8437 10.5375 20.7883 11.4821 20.7883 12.6384C20.7883 13.7946 19.8437 14.7393 18.6874 14.7393H13.4267Z" fill="#1C263F"/>
</svg>
