<svg width="30" height="40" viewBox="0 0 30 40" fill="none" xmlns="http://www.w3.org/2000/svg">
<path d="M30 9.52664V10H20V0H20.4734C20.9706 0 21.4476 0.197578 21.7992 0.549141L29.4509 8.20078C29.8025 8.55245 30 9.02936 30 9.52664ZM19.375 12.5H30V38.125C30 39.1605 29.1605 40 28.125 40H1.875C0.839453 40 0 39.1605 0 38.125V1.875C0 0.839453 0.839453 0 1.875 0H17.5V10.625C17.5 11.6562 18.3438 12.5 19.375 12.5ZM24.4762 21.0728L22.2755 18.8542C21.9109 18.4866 21.3173 18.4842 20.9498 18.8489L12.6656 27.0664L9.07344 23.4452C8.70883 23.0776 8.11516 23.0752 7.74758 23.4398L5.52906 25.6406C5.16148 26.0052 5.15906 26.5988 5.52375 26.9664L11.977 33.4718C12.3416 33.8394 12.9352 33.8418 13.3027 33.4771L24.4709 22.3986C24.8385 22.034 24.8409 21.4404 24.4762 21.0728Z" fill="white"/>
</svg>
