<svg width="40" height="40" viewBox="0 0 40 40" fill="none" xmlns="http://www.w3.org/2000/svg">
<path d="M39.6665 8.5233C39.4915 7.81784 38.6087 7.57877 38.0946 8.09284L32.2853 13.9022L26.9822 13.0186L26.0986 7.71549L31.9079 1.90613C32.4251 1.38894 32.1759 0.507696 31.4658 0.331134C27.7642 -0.586052 23.6884 0.402227 20.7955 3.29441C17.6986 6.39128 16.8463 10.8803 18.1353 14.7944L1.46425 31.4654C-0.488085 33.4178 -0.488085 36.5834 1.46425 38.5357C3.41659 40.4881 6.58221 40.4881 8.53455 38.5357L25.1915 21.8787C29.1072 23.1842 33.5876 22.3225 36.7048 19.2053C39.6009 16.3092 40.5876 12.2272 39.6665 8.5233ZM5.00019 36.8748C3.96503 36.8748 3.12519 36.035 3.12519 34.9998C3.12519 33.9639 3.96503 33.1248 5.00019 33.1248C6.03534 33.1248 6.87518 33.9639 6.87518 34.9998C6.87518 36.035 6.03534 36.8748 5.00019 36.8748Z" fill="white"/>
</svg>
