<svg width="55" height="38" viewBox="0 0 55 38" fill="none" xmlns="http://www.w3.org/2000/svg">
<path d="M51.5714 0H2.71429C1.21549 0 0 1.21549 0 2.71429V35.2857C0 36.7845 1.21549 38 2.71429 38H51.5714C53.0702 38 54.2857 36.7845 54.2857 35.2857V2.71429C54.2857 1.21549 53.0702 0 51.5714 0ZM14.9286 25.097V26.4643C14.9286 26.8392 14.6249 27.1429 14.25 27.1429H12.8929C12.5179 27.1429 12.2143 26.8392 12.2143 26.4643V25.0825C11.2567 25.0333 10.3253 24.6991 9.55344 24.1198C9.22263 23.8713 9.20567 23.3759 9.50509 23.0901L10.5017 22.1392C10.7367 21.9153 11.0862 21.9051 11.361 22.0773C11.6892 22.2826 12.0616 22.3929 12.4484 22.3929H14.8327C15.3841 22.3929 15.8336 21.8907 15.8336 21.2741C15.8336 20.7694 15.5274 20.3249 15.0897 20.1943L11.2728 19.0492C9.69594 18.5759 8.59411 17.0627 8.59411 15.3688C8.59411 13.289 10.21 11.5993 12.2134 11.5459V10.1786C12.2134 9.80366 12.5171 9.5 12.892 9.5H14.2492C14.6241 9.5 14.9277 9.80366 14.9277 10.1786V11.5603C15.8854 11.6095 16.8167 11.9429 17.5886 12.523C17.9194 12.7716 17.9363 13.2669 17.6369 13.5528L16.6403 14.5036C16.4053 14.7275 16.0558 14.7377 15.781 14.5655C15.4528 14.3594 15.0804 14.25 14.6936 14.25H12.3093C11.7579 14.25 11.3084 14.7521 11.3084 15.3688C11.3084 15.8735 11.6146 16.3179 12.0523 16.4486L15.8692 17.5937C17.4461 18.067 18.5479 19.5802 18.5479 21.2741C18.5479 23.3547 16.9321 25.0435 14.9286 25.097V25.097ZM35.2857 23.75C35.2857 24.1249 34.9821 24.4286 34.6071 24.4286H25.1071C24.7322 24.4286 24.4286 24.1249 24.4286 23.75V22.3929C24.4286 22.0179 24.7322 21.7143 25.1071 21.7143H34.6071C34.9821 21.7143 35.2857 22.0179 35.2857 22.3929V23.75ZM48.8571 23.75C48.8571 24.1249 48.5535 24.4286 48.1786 24.4286H41.3929C41.0179 24.4286 40.7143 24.1249 40.7143 23.75V22.3929C40.7143 22.0179 41.0179 21.7143 41.3929 21.7143H48.1786C48.5535 21.7143 48.8571 22.0179 48.8571 22.3929V23.75ZM48.8571 15.6071C48.8571 15.9821 48.5535 16.2857 48.1786 16.2857H25.1071C24.7322 16.2857 24.4286 15.9821 24.4286 15.6071V14.25C24.4286 13.8751 24.7322 13.5714 25.1071 13.5714H48.1786C48.5535 13.5714 48.8571 13.8751 48.8571 14.25V15.6071Z" fill="#3D5A81"/>
</svg>
