<svg width="48" height="38" viewBox="0 0 48 38" fill="none" xmlns="http://www.w3.org/2000/svg">
<path d="M36.212 14.1867H24.9329L24.9329 18.035C24.9329 20.8295 22.9234 23.3777 20.143 23.6575C16.9455 23.979 14.2474 21.4744 14.2474 18.3422V9.38564L12.4286 10.4787C9.14208 12.4577 7.12667 16.0121 7.12667 19.856L1.19028 23.2916C0.0586509 23.941 -0.340572 25.3976 0.318368 26.5292L6.25476 36.814C6.91333 37.9456 8.3696 38.3352 9.50123 37.6859L17.174 33.2522H27.3104C29.9261 33.2522 32.0595 31.1188 32.0595 28.5031C34.0267 28.5031 35.6214 26.9084 35.6214 24.9412V21.3772H36.215C37.1982 21.3772 37.9959 20.5795 37.9959 19.5962L37.9959 16.0344C37.993 15.0475 37.199 14.1867 36.212 14.1867ZM47.1721 11.4708L41.2394 1.18599C40.5809 0.0543643 39.1246 -0.335212 37.993 0.314082L30.3202 4.74783H25.6772C22.8685 4.74783 20.117 5.53514 17.7298 7.02073C17.0449 7.45631 16.6219 8.2132 16.6219 9.02945L16.6219 18.409C16.6219 20.0511 17.9487 21.3772 19.5901 21.3772C21.2323 21.3772 22.5583 20.0504 22.5583 18.409V11.8121H36.212C38.5072 11.8121 40.3675 13.6725 40.3675 15.9676V18.0825L46.3039 14.6505C47.4393 14.0605 47.8251 12.6061 47.1721 11.4708Z" fill="#3D5A81"/>
</svg>
