<svg width="28" height="40" viewBox="0 0 28 40" fill="none" xmlns="http://www.w3.org/2000/svg">
<path d="M7.50453 35.4954C7.50531 35.9868 7.65062 36.468 7.92327 36.8774L9.2584 38.8844C9.48647 39.2275 9.79583 39.5089 10.1589 39.7035C10.522 39.8981 10.9276 40 11.3396 40H16.1606C16.5726 40 16.9782 39.8981 17.3413 39.7035C17.7044 39.5089 18.0137 39.2275 18.2418 38.8844L19.5769 36.8774C19.8495 36.468 19.9951 35.9872 19.9957 35.4954L19.9988 32.4994H7.50062L7.50453 35.4954ZM0 13.7498C0 17.2161 1.28513 20.3785 3.40305 22.7949C4.69365 24.2675 6.71236 27.344 7.48187 29.9393C7.485 29.9596 7.48734 29.9799 7.49047 30.0002H20.0089C20.0121 29.9799 20.0144 29.9604 20.0175 29.9393C20.7871 27.344 22.8058 24.2675 24.0964 22.7949C26.2143 20.3785 27.4994 17.2161 27.4994 13.7498C27.4994 6.14134 21.3206 -0.0233704 13.7067 6.66062e-05C5.73738 0.0242848 0 6.48196 0 13.7498ZM13.7497 7.49991C10.3037 7.49991 7.49984 10.3038 7.49984 13.7498C7.49984 14.4404 6.94048 14.9997 6.24987 14.9997C5.55926 14.9997 4.99989 14.4404 4.99989 13.7498C4.99989 8.92488 8.92481 4.99996 13.7497 4.99996C14.4403 4.99996 14.9997 5.55932 14.9997 6.24993C14.9997 6.94054 14.4403 7.49991 13.7497 7.49991Z" fill="black"/>
</svg>
