<svg width="45" height="40" viewBox="0 0 45 40" fill="none" xmlns="http://www.w3.org/2000/svg">
<path d="M43.7502 0H1.25001C0.559378 0 0 0.559378 0 1.25001V3.75002C0 4.44065 0.559378 5.00002 1.25001 5.00002H2.50001V25.0001C2.50001 26.3806 3.61955 27.5001 5.00002 27.5001H20.0001V30.215L14.1165 36.0986C13.6282 36.5869 13.6282 37.3783 14.1165 37.8666L15.8837 39.6338C16.372 40.1221 17.1634 40.1221 17.6517 39.6338L22.5001 34.7853L27.3486 39.6338C27.8369 40.1221 28.6283 40.1221 29.1166 39.6338L30.8837 37.8666C31.372 37.3783 31.372 36.5869 30.8837 36.0986L25.0001 30.215V27.5001H40.0002C41.3807 27.5001 42.5002 26.3806 42.5002 25.0001V5.00002H43.7502C44.4408 5.00002 45.0002 4.44065 45.0002 3.75002V1.25001C45.0002 0.559378 44.4408 0 43.7502 0ZM37.5002 22.5001H7.50004V5.00002H37.5002V22.5001Z" fill="black"/>
</svg>
