<svg width="58" height="40" viewBox="0 0 58 40" fill="none" xmlns="http://www.w3.org/2000/svg">
<path d="M8.57143 17.1429C11.7232 17.1429 14.2857 14.5804 14.2857 11.4286C14.2857 8.27679 11.7232 5.71429 8.57143 5.71429C5.41964 5.71429 2.85714 8.27679 2.85714 11.4286C2.85714 14.5804 5.41964 17.1429 8.57143 17.1429ZM48.5714 17.1429C51.7232 17.1429 54.2857 14.5804 54.2857 11.4286C54.2857 8.27679 51.7232 5.71429 48.5714 5.71429C45.4196 5.71429 42.8571 8.27679 42.8571 11.4286C42.8571 14.5804 45.4196 17.1429 48.5714 17.1429ZM51.4286 20H45.7143C44.1429 20 42.7232 20.6339 41.6875 21.6607C45.2857 23.6339 47.8393 27.1964 48.3929 31.4286H54.2857C55.8661 31.4286 57.1429 30.1518 57.1429 28.5714V25.7143C57.1429 22.5625 54.5804 20 51.4286 20ZM28.5714 20C34.0982 20 38.5714 15.5268 38.5714 10C38.5714 4.47321 34.0982 0 28.5714 0C23.0446 0 18.5714 4.47321 18.5714 10C18.5714 15.5268 23.0446 20 28.5714 20ZM35.4286 22.8571H34.6875C32.8304 23.75 30.7679 24.2857 28.5714 24.2857C26.375 24.2857 24.3214 23.75 22.4554 22.8571H21.7143C16.0357 22.8571 11.4286 27.4643 11.4286 33.1429V35.7143C11.4286 38.0804 13.3482 40 15.7143 40H41.4286C43.7946 40 45.7143 38.0804 45.7143 35.7143V33.1429C45.7143 27.4643 41.1071 22.8571 35.4286 22.8571ZM15.4554 21.6607C14.4196 20.6339 13 20 11.4286 20H5.71429C2.5625 20 0 22.5625 0 25.7143V28.5714C0 30.1518 1.27679 31.4286 2.85714 31.4286H8.74107C9.30357 27.1964 11.8571 23.6339 15.4554 21.6607Z" fill="black"/>
</svg>
