<svg width="48" height="38" viewBox="0 0 48 38" fill="none" xmlns="http://www.w3.org/2000/svg">
<path d="M16.625 19C21.8723 19 26.125 14.7465 26.125 9.5C26.125 4.25348 21.8723 0 16.625 0C11.3777 0 7.125 4.25348 7.125 9.5C7.125 14.7465 11.3777 19 16.625 19ZM20.3879 22.5625H12.8621C5.75715 22.5625 0 28.3219 0 35.4246C0 36.8496 1.15188 38 2.57242 38H30.6746C32.0996 38 33.25 36.8496 33.25 35.4246C33.25 28.3219 27.4906 22.5625 20.3879 22.5625ZM35.5582 23.75H30.0771C33.4875 26.548 35.625 30.734 35.625 35.4246C35.625 36.3746 35.343 37.2504 34.8828 38H45.125C46.4387 38 47.5 36.9313 47.5 35.5582C47.5 29.0641 42.1859 23.75 35.5582 23.75ZM32.0625 19C36.6566 19 40.375 15.2816 40.375 10.6875C40.375 6.09336 36.6566 2.375 32.0625 2.375C30.1989 2.375 28.497 3.00994 27.1106 4.04566C27.9656 5.68738 28.5 7.52578 28.5 9.5C28.5 12.1363 27.6146 14.5573 26.1554 16.5293C27.6613 18.05 29.7469 19 32.0625 19Z" fill="#3D5A81"/>
</svg>
