<svg width="37" height="32" viewBox="0 0 37 32" fill="none" xmlns="http://www.w3.org/2000/svg">
<path d="M16.6118 20.8471L13.9348 25.7002L36.6126 25.8466L21.5627 0.127441L18.0132 6.12755L26.4874 20.7369L16.6118 20.8471Z" fill="white"/>
<path d="M18.8734 5.69184C17.9223 4.03681 16.973 2.38007 16.0272 0.72332L15.6136 0L0 26.7094H5.81473L6.37317 25.764H1.65961L15.6048 1.91163C16.4146 3.32899 17.226 4.74463 18.0393 6.16027C21.7878 12.6839 22.6638 14.2494 26.4874 20.7386L27.5885 20.7162" fill="white"/>
<path d="M12.1406 26.8128L15.6029 20.6284L18.6342 15.1949L15.582 10.0317L2.70654 32H34.1535L31.0682 26.78L12.1406 26.8128Z" fill="white"/>
</svg>
